<svg xmlns="http://www.w3.org/2000/svg" xmlns:xlink="http://www.w3.org/1999/xlink" viewBox="0 0 42.09 126.13"><defs><style>.cls-1{fill:#f6f3f7;}.cls-2{fill:url(#linear-gradient);}.cls-3{fill:#33c0c9;}.cls-4{fill:#4a6cb8;}.cls-5{fill:url(#linear-gradient-2);}.cls-6{fill:url(#linear-gradient-3);}.cls-7{fill:none;stroke:#4a6cb8;stroke-miterlimit:10;stroke-width:0.27px;}</style><linearGradient id="linear-gradient" x1="9769.83" y1="-1387.35" x2="9834.67" y2="-1343.32" gradientTransform="matrix(-1.41, 0, 0, 1.41, 13786.09, 1993.9)" gradientUnits="userSpaceOnUse"><stop offset="0" stop-color="#f6f3f7"/><stop offset="1" stop-color="#77488a"/></linearGradient><linearGradient id="linear-gradient-2" x1="9771.2" y1="-1406.71" x2="9839.03" y2="-1360.64" gradientTransform="matrix(-1.02, -0.97, -0.97, 1.02, 8606.65, 10964.93)" xlink:href="#linear-gradient"/><linearGradient id="linear-gradient-3" x1="1649.4" y1="-1402.91" x2="1682.2" y2="-1369.79" gradientTransform="matrix(1.41, 0, 0, 1.41, -2303.86, 1993.82)" xlink:href="#linear-gradient"/></defs><title>competition</title><g id="Layer_2" data-name="Layer 2"><g id="NatWest-longform_3-digitisation-desktop"><circle class="cls-1" cx="21.04" cy="55.86" r="21.04" transform="translate(-32.84 30.17) rotate(-43.86)"/><path class="cls-2" d="M21,47.59a18.52,18.52,0,0,1-14.49-7,21,21,0,0,1,11.16-5.53h.05l.53-.07.41,0,.48-.05.53,0,.39,0c.31,0,.63,0,.94,0l1.07,0,.39,0,.66.05.49.06.54.07.56.1.45.08.6.13.39.09.64.18.33.09.68.22.27.1.7.26.22.09.73.32.18.08c.25.11.5.24.74.37l.13.06.76.42.1.06.76.47.06,0c.26.17.52.34.77.52l0,0c.26.18.51.37.76.56l0,0c.25.2.5.4.74.61h0A21,21,0,0,1,21,76.9a20.53,20.53,0,0,1-3.34-.27A21,21,0,0,0,35.41,55.86a20.89,20.89,0,0,0-3.58-11.73A18.51,18.51,0,0,1,21,47.59Z"/><path class="cls-3" d="M7.4,70.62c7.49,4.35,19.66,4.35,27.2,0,3-1.76,4.86-4,5.45-6.23h0L21,126.13h0L2.22,65.05A11.12,11.12,0,0,0,7.4,70.62Z"/><path class="cls-4" d="M21,126.13h0L2.22,65.05A11.12,11.12,0,0,0,7.4,70.62a23.1,23.1,0,0,0,6,2.36L21,126.13Z"/><circle class="cls-5" cx="21.04" cy="27.32" r="18.55" transform="translate(-13.05 22.13) rotate(-43.74)"/><path class="cls-6" d="M34.38,27.32A18.56,18.56,0,0,0,18.44,9a18.56,18.56,0,1,1,0,36.74A18.56,18.56,0,0,0,34.38,27.32Z"/><circle class="cls-4" cx="21.13" cy="8.77" r="4.05" transform="translate(-0.34 16.67) rotate(-42.74)"/><path class="cls-7" d="M21.13,6.17a6,6,0,0,0-4.05-6"/></g></g></svg>