<svg xmlns="http://www.w3.org/2000/svg" viewBox="0 0 123.9 126"><defs><style>.cls-1{fill:#4a6cb8;}.cls-2{fill:#33c0c9;}.cls-3{fill:#00b0bc;}.cls-4{fill:#fff;}.cls-5{fill:#26bcc6;}.cls-6,.cls-9{fill:none;stroke:#fff;stroke-miterlimit:10;}.cls-6{stroke-width:0.24px;}.cls-7{fill:#42145f;}.cls-8{fill:#490b63;}.cls-9{stroke-width:0.16px;}</style></defs><title>devices</title><g id="Layer_2" data-name="Layer 2"><g id="NatWest-longform_3-digitisation-desktop"><polygon class="cls-1" points="80.67 88.31 83.36 77.74 93.18 83.9 94.51 96.67 83.56 102.98 83.55 101.61 83.56 102.08 80.67 88.31"/><polygon class="cls-2" points="92.33 83.49 93.66 96.25 83.56 102.08 69.79 93.78 79.71 87.96 82.39 77.39 92.33 83.49"/><polygon class="cls-3" points="82.39 77.39 92.33 83.49 93.66 96.25 79.71 87.96 82.39 77.39"/><polygon class="cls-3" points="83.56 102.08 83.56 102.98 69.79 94.69 69.79 93.78 83.56 102.08"/><polygon class="cls-2" points="48.28 1.3 121.64 43.65 123.9 42.35 50.55 0 48.28 1.3"/><polygon class="cls-3" points="48.28 62.2 121.64 104.55 121.64 43.65 48.28 1.3 48.28 62.2"/><polygon class="cls-1" points="123.9 42.34 121.64 43.65 121.64 104.55 123.9 103.24 123.9 42.34"/><polygon class="cls-4" points="50.6 54.26 119.32 93.94 119.32 45.82 50.6 6.15 50.6 54.26"/><path class="cls-1" d="M71,119.77h0v-1.42l2.91-.56,19.74-11.41a2.1,2.1,0,0,1,1.86,0l8.29,4.82,1.49-.29v1.47h0a.7.7,0,0,1-.39.54L82.62,125.78a2.12,2.12,0,0,1-1.87,0l-9.39-5.46A.63.63,0,0,1,71,119.77Z"/><path class="cls-3" d="M81.67,113.29V126a2,2,0,0,1-.92-.22l-9.39-5.46a.63.63,0,0,1-.38-.55h0v-1.42l2.91-.56Z"/><path class="cls-5" d="M71.37,117.8a.56.56,0,0,0,0,1.07l9.39,5.46a2.06,2.06,0,0,0,1.87,0l22.26-12.86a.57.57,0,0,0,0-1.07l-9.39-5.46a2,2,0,0,0-1.86,0Z"/><polygon class="cls-4" points="74.33 116.94 84.12 122.63 102.72 111.88 92.93 106.19 74.33 116.94"/><ellipse class="cls-6" cx="77.94" cy="120.68" rx="1.29" ry="0.75" transform="translate(-0.34 0.22) rotate(-0.16)"/><path class="cls-7" d="M99,107.87c-.14.08-.14.2,0,.28a.55.55,0,0,0,.5,0c.14-.07.14-.2,0-.28A.53.53,0,0,0,99,107.87Z"/><path class="cls-8" d="M75,121.62v.23a.07.07,0,0,0,0,.07l2.07,1.21a0,0,0,0,0,.06,0v-.24a.05.05,0,0,0,0,0L75,121.59A0,0,0,0,0,75,121.62Z"/><path class="cls-3" d="M73.53,108.52h0v-.81L70.05,107,27.51,82.5a2.5,2.5,0,0,0-2.23,0L1.78,96.16,0,95.81v.87H0a.79.79,0,0,0,.47.65L46,123.6a2.44,2.44,0,0,0,2.23,0l24.82-14.42A.77.77,0,0,0,73.53,108.52Z"/><path class="cls-1" d="M48.25,123.6l24.82-14.42a.77.77,0,0,0,.46-.66h0v-.81L70.05,107l-5.41-3.12-17.47,9.77v10.19A2.36,2.36,0,0,0,48.25,123.6Z"/><path class="cls-5" d="M73.07,107c.61.36.62.94,0,1.29L48.25,122.75a2.44,2.44,0,0,1-2.23,0L.47,96.48a.68.68,0,0,1,0-1.29L25.28,80.77a2.44,2.44,0,0,1,2.23,0Z"/><polygon class="cls-4" points="69.52 106.01 44.22 120.71 3.05 96.97 28.35 82.27 69.52 106.01"/><ellipse class="cls-9" cx="59.28" cy="114.15" rx="0.9" ry="1.55" transform="translate(-55.04 173.11) rotate(-89.84)"/><path d="M14.11,89c.22.13.22.33,0,.46a.91.91,0,0,1-.79,0,.25.25,0,0,1,0-.46A.91.91,0,0,1,14.11,89Z"/></g></g></svg>