<svg xmlns="http://www.w3.org/2000/svg" xmlns:xlink="http://www.w3.org/1999/xlink" viewBox="0 0 106.47 126.98"><defs><style>.cls-1{fill:none;}.cls-2{fill:#f6f3f7;}.cls-3{fill:url(#New_Gradient_Swatch);}.cls-4{fill:#fff;}.cls-5{fill:url(#New_Gradient_Swatch-2);}.cls-6{clip-path:url(#clip-path);}</style><linearGradient id="New_Gradient_Swatch" x1="32.32" y1="2.09" x2="103.83" y2="72.57" gradientUnits="userSpaceOnUse"><stop offset="0" stop-color="#f6f3f7"/><stop offset="1" stop-color="#77488a"/></linearGradient><linearGradient id="New_Gradient_Swatch-2" x1="40.88" y1="3.51" x2="158.27" y2="117.11" xlink:href="#New_Gradient_Swatch"/><clipPath id="clip-path"><path class="cls-1" d="M46.26,107.16c-2.08-20-3.74-36.53-4.37-49.57A19.72,19.72,0,0,1,40.61,26.3h0C30.51,20.14,26.26,8,13.56,9.59c-25,3.07-8.33,34.86-5.48,63.79S16.85,117,22.33,117s5.48-11.4,5.48-23.24-1.76-18.41,2-18.41,8.33,24.33,11.4,39.23c1.53,7.46,5.4,12.39,12,12.39C53.23,127,48.29,126.61,46.26,107.16Z"/></clipPath></defs><title>ortodontics</title><g id="Layer_2" data-name="Layer 2"><g id="NatWest-longform_3-digitisation-desktop"><circle class="cls-2" cx="53.23" cy="22.7" r="22.7"/><circle class="cls-3" cx="53.23" cy="22.7" r="22.7"/><path class="cls-4" d="M41.18,114.59c-3.07-14.9-7.67-39.23-11.4-39.23s-2,6.57-2,18.41,0,23.24-5.48,23.24S10.93,102.32,8.08,73.38-11.43,12.66,13.56,9.59C30.5,7.51,32.41,29.76,53.23,29.76S76,7.51,92.91,9.59c25,3.07,8.33,34.86,5.48,63.79-.14,1.44-1.68,13-1.83,14.33C94,111.33,89.32,117,84.14,117c-4,0-5.58-6.1-5.5-16,0-.39,0-6.86,0-7.26.2-11.84,1.76-18.41-2-18.41s-8.33,24.33-11.4,39.23C63.76,122.05,59.89,127,53.23,127S42.71,122.05,41.18,114.59Z"/><path class="cls-5" d="M53.23,47.32c21.14,0,25.64-34,34.45-37.56-12.39,2.51-16,20-34.45,20-19.66,0-22.46-19.83-37-20.29C28.05,10,31.09,47.32,53.23,47.32Z"/><circle class="cls-4" cx="53.23" cy="41.46" r="19.73"/><path class="cls-2" d="M46.26,107.16c-5.26-50.47-7.8-78.77,2-84.79a19.69,19.69,0,0,0-7.63,3.93C30.51,20.14,26.26,8,13.56,9.59c-25,3.07-8.33,34.86-5.48,63.79S16.85,117,22.33,117s5.48-11.4,5.48-23.24-1.76-18.41,2-18.41,8.33,24.33,11.4,39.23c1.53,7.46,5.4,12.39,12,12.39C53.23,127,48.29,126.61,46.26,107.16Z"/><g class="cls-6"><path class="cls-5" d="M53.23,47.32c21.14,0,25.64-34,34.45-37.56-12.39,2.51-16,20-34.45,20-19.66,0-22.46-19.83-37-20.29C28.05,10,31.09,47.32,53.23,47.32Z"/></g></g></g></svg>