<svg xmlns="http://www.w3.org/2000/svg" xmlns:xlink="http://www.w3.org/1999/xlink" viewBox="0 0 81 85.6"><defs><style>.cls-1{fill:#f8f4fa;}.cls-2{fill:#00b0bc;}.cls-3{fill:url(#linear-gradient);}.cls-4{fill:#4a6cb8;}.cls-5{fill:url(#New_Gradient_Swatch);}.cls-6{fill:#00bfc8;}.cls-7{fill:none;stroke:#7a2296;stroke-miterlimit:10;stroke-width:0.29px;}.cls-8{fill:#33c0c9;}.cls-9{fill:#fff;}</style><linearGradient id="linear-gradient" x1="35.49" y1="42.11" x2="93.97" y2="70.02" gradientUnits="userSpaceOnUse"><stop offset="0" stop-color="#f6f3f7"/><stop offset="1" stop-color="#77488a"/></linearGradient><linearGradient id="New_Gradient_Swatch" x1="14.91" y1="8.7" x2="71.18" y2="41.23" xlink:href="#linear-gradient"/></defs><title>10_3D printing</title><g id="Layer_2" data-name="Layer 2"><g id="NatWest-longform_3-digitisation-desktop"><polygon class="cls-1" points="47.72 3.7 47.72 34.83 74.61 19.29 47.72 3.7"/><polygon class="cls-2" points="51.27 9.88 51.27 30.53 77.45 45.57 77.37 24.96 51.27 9.88"/><polygon class="cls-3" points="81 19.29 33.19 46.92 33.28 85.6 81 58.02 81 19.29"/><polygon class="cls-1" points="0 27.75 0 66.47 33.28 85.6 33.19 46.92 0 27.75"/><polygon class="cls-2" points="3.55 33.92 3.55 54.58 29.73 69.62 29.65 49.01 3.55 33.92"/><polygon class="cls-4" points="21.8 9.91 21.8 19.68 24.09 19.68 24.09 9.91 22.95 8.76 21.8 9.91"/><polygon class="cls-5" points="6.38 27.74 33.19 43.23 47.72 34.83 47.72 3.7 6.38 27.74"/><path class="cls-4" d="M37.84,32.59H35.1l.95,2.63a.21.21,0,0,0,.11.13.68.68,0,0,0,.62,0,.26.26,0,0,0,.11-.13Z"/><path class="cls-6" d="M38.72,31.93a1.13,1.13,0,0,1-.66.92,3.5,3.5,0,0,1-3.18,0,1.13,1.13,0,0,1-.66-.92V28.67h4.5Z"/><polygon class="cls-2" points="64.44 13.37 57.38 9.28 57.38 15.11 64.44 19.17 64.44 13.37"/><polygon class="cls-4" points="65.27 13.86 64.44 13.37 64.44 19.17 65.27 18.8 65.27 13.86"/><line class="cls-7" x1="63.72" y1="14.35" x2="22.38" y2="38.38"/><line class="cls-7" x1="58.64" y1="11.88" x2="18.05" y2="35.48"/><polygon class="cls-2" points="36.47 23.9 30.62 20.52 30.62 27.35 36.47 30.71 36.47 23.9"/><polygon class="cls-8" points="42.32 20.52 36.47 17.14 30.62 20.54 36.47 23.9 42.32 20.52"/><polygon class="cls-4" points="36.47 23.9 42.32 20.52 42.32 27.35 36.47 30.71 36.47 23.9"/><polygon class="cls-1" points="76.24 25.89 37.94 48.02 38.02 64.34 59.09 66.82 76.24 56.91 76.24 25.89"/><polygon class="cls-8" points="76.24 44.88 76.24 25.89 59.76 35.41 76.24 44.88"/><polygon class="cls-9" points="76.24 56.91 76.24 55.2 50.92 40.53 37.94 48.02 38.02 64.34 59.09 66.82 76.24 56.91"/><polygon class="cls-4" points="60.48 55.43 44.09 65.05 38.02 64.34 59.19 52.44 60.48 55.43"/><polygon class="cls-8" points="45.22 43.82 59.19 52.44 38.02 64.34 38.02 48.02 45.22 43.82"/><path class="cls-9" d="M47.72,0,0,27.75,33.19,46.92,81,19.29ZM33.19,43.23,6.38,27.74l41.34-24L74.61,19.29Z"/><path class="cls-4" d="M34.12,8c-2.28-3.27-6-5-8.86-4.09-2.27.71-3.57,2.87-3.57,5.93H24c0-1.43.34-3.24,2-3.75s4.37.45,6.31,3.22c2.83,4.06,3.08,7.72,3.08,11.14v0a.58.58,0,0,0,.33.44,1.78,1.78,0,0,0,1.62,0,.58.58,0,0,0,.33-.44v-.06C37.61,16.84,37.34,12.65,34.12,8Z"/></g></g></svg>