<svg xmlns="http://www.w3.org/2000/svg" xmlns:xlink="http://www.w3.org/1999/xlink" viewBox="0 0 100 83.41"><defs><style>.cls-1{fill:#fff;}.cls-2{fill:#f6f3f7;}.cls-3{fill:url(#linear-gradient);}</style><linearGradient id="linear-gradient" x1="17.59" y1="33.86" x2="146.73" y2="100.17" gradientUnits="userSpaceOnUse"><stop offset="0" stop-color="#f6f3f7"/><stop offset="1" stop-color="#77488a"/></linearGradient></defs><title>05_AI</title><g id="Layer_2" data-name="Layer 2"><g id="NatWest-longform_3-digitisation-desktop"><path class="cls-1" d="M13.52,47.5l8.92-5.15V37.81c0-12.88,9-28.56,20.22-35C48.28-.47,53.38-.77,57.07,1.36h0L69.29,8.2l-6.62,2.19a23.74,23.74,0,0,1,.34,4v5.33l6.81-3.93c5.26-3,9.67-2.75,13.24-.82,2.77,1.5,11,6.13,11,6.13L12.41,83.41,0,76.48v-.79C0,64.45,3.74,53.15,13.52,47.5Z"/><path class="cls-2" d="M50.3,33.39,34.84,49.29l-12.4-6.94V37.81c0-6,1.91-12.5,5.09-18.46Z"/><path class="cls-2" d="M0,76.48v-.79A39.78,39.78,0,0,1,3.48,58.62L18.33,67l1.78,10.51-7.7,5.88Z"/><path class="cls-3" d="M55.06,9.72c-11.21,6.47-20.26,22.15-20.23,35v4.54l-8.92,5.15c-9.78,5.64-13.55,17-13.52,28.19v.78L100,32.84c0-11.24-8-15.77-17.77-10.12l-6.8,3.93,0-5.33C75.37,8.44,66.26,3.25,55.06,9.72Z"/></g></g></svg>