<svg xmlns="http://www.w3.org/2000/svg" xmlns:xlink="http://www.w3.org/1999/xlink" viewBox="0 0 81 103.52"><defs><style>.cls-1,.cls-11,.cls-7{fill:none;}.cls-2{fill:#6e89c7;}.cls-3{fill:#4a6cb8;}.cls-4{fill:#33c0c9;}.cls-5{fill:#4dc8d0;}.cls-6{fill:#00b0bc;}.cls-7{stroke:#fff;}.cls-11,.cls-7{stroke-miterlimit:10;stroke-width:0.21px;}.cls-8{fill:#490b63;}.cls-9{fill:#fff;}.cls-10{clip-path:url(#clip-path);}.cls-11{stroke:#490b63;}.cls-12{clip-path:url(#clip-path-2);}.cls-13{clip-path:url(#clip-path-3);}</style><clipPath id="clip-path"><path class="cls-1" d="M71.08,44.62A13.34,13.34,0,0,0,65,55.11c0,3.85,2.74,5.41,6.1,3.47a13.36,13.36,0,0,0,6-10.49C77.16,44.24,74.43,42.68,71.08,44.62Z"/></clipPath><clipPath id="clip-path-2"><path class="cls-1" d="M51.22,55.82a13.29,13.29,0,0,0-6,10.48c0,3.86,2.73,5.41,6.09,3.48a13.35,13.35,0,0,0,6.05-10.49C57.3,55.43,54.57,53.88,51.22,55.82Z"/></clipPath><clipPath id="clip-path-3"><polygon class="cls-1" points="45.16 88.61 77.17 70.13 77.17 66.56 45.16 85.03 45.16 88.61"/></clipPath></defs><title>06_chatbox</title><g id="Layer_2" data-name="Layer 2"><g id="NatWest-longform_3-digitisation-desktop"><polygon class="cls-2" points="40.5 99.2 81 75.81 73.84 84.27 40.5 103.52 40.5 99.2"/><polygon class="cls-3" points="40.5 99.2 81 75.81 81 28.33 40.5 51.71 40.5 99.2"/><polygon class="cls-4" points="40.5 51.71 81 28.33 40.5 4.96 0 28.34 40.5 51.71"/><polygon class="cls-5" points="7.16 22.5 40.5 3.25 73.84 22.49 40.5 41.74 7.16 22.5"/><polygon class="cls-6" points="40.5 99.2 0 75.81 0 28.33 40.5 51.71 40.5 99.2"/><path class="cls-3" d="M21.6,66.16c1.33-.77,2.16-2.41,2.16-4.74a16.15,16.15,0,0,0-7.34-12.71A5.45,5.45,0,0,0,11.53,48l-2.15,1.2L20.06,67Z"/><path class="cls-4" d="M16.42,48.71A5.45,5.45,0,0,0,11.53,48l-2.15,1.2,3.53,5.89,4,3.4,5.26-3.2A15.51,15.51,0,0,0,16.42,48.71Z"/><path class="cls-6" d="M14.6,49.75a16.18,16.18,0,0,1,7.34,12.71c0,4.68-3.32,6.56-7.39,4.21A16.16,16.16,0,0,1,7.21,54C7.22,49.29,10.53,47.4,14.6,49.75Z"/><polygon class="cls-7" points="62.84 60.81 66.02 65.6 59.7 69.25 62.84 60.81"/><path class="cls-8" d="M68.39,60.47c-2.63,0-4.41-2.16-4.42-5.36a14.32,14.32,0,0,1,6.58-11.4,6.48,6.48,0,0,1,3.25-1c2.64,0,4.41,2.15,4.42,5.35a14.27,14.27,0,0,1-6.58,11.4,6.5,6.5,0,0,1-3.25,1Z"/><path class="cls-9" d="M71.08,44.62A13.34,13.34,0,0,0,65,55.11c0,3.85,2.74,5.41,6.1,3.47a13.36,13.36,0,0,0,6-10.49C77.16,44.24,74.43,42.68,71.08,44.62Z"/><g class="cls-10"><line class="cls-11" x1="71.1" y1="61.54" x2="71.1" y2="41.66"/><line class="cls-11" x1="63.71" y1="55.87" x2="78.49" y2="47.33"/><line class="cls-11" x1="65.58" y1="60.93" x2="76.61" y2="42.27"/><line class="cls-11" x1="80.74" y1="56.55" x2="61.45" y2="46.65"/></g><path class="cls-9" d="M71.09,48.34a6.21,6.21,0,0,0-2.83,4.9c0,1.8,1.28,2.53,2.85,1.62A6.24,6.24,0,0,0,73.94,50C73.93,48.16,72.66,47.43,71.09,48.34Z"/><path class="cls-8" d="M71.09,49.48a4.06,4.06,0,0,0-1.84,3.19c0,1.17.83,1.64,1.85,1a4,4,0,0,0,1.84-3.19C72.94,49.36,72.11,48.89,71.09,49.48Z"/><path class="cls-8" d="M48.53,71.66c-2.63,0-4.41-2.15-4.42-5.35a14.3,14.3,0,0,1,6.58-11.4,6.54,6.54,0,0,1,3.26-1c2.63,0,4.41,2.15,4.42,5.36a14.33,14.33,0,0,1-6.58,11.4,6.62,6.62,0,0,1-3.26,1Z"/><path class="cls-9" d="M51.22,55.82a13.29,13.29,0,0,0-6,10.48c0,3.86,2.73,5.41,6.09,3.48a13.35,13.35,0,0,0,6.05-10.49C57.3,55.43,54.57,53.88,51.22,55.82Z"/><g class="cls-12"><line class="cls-11" x1="51.24" y1="72.73" x2="51.24" y2="52.86"/><line class="cls-11" x1="43.85" y1="67.06" x2="58.63" y2="58.53"/><line class="cls-11" x1="45.72" y1="72.13" x2="56.75" y2="53.47"/><line class="cls-11" x1="60.88" y1="67.74" x2="41.6" y2="57.85"/></g><path class="cls-9" d="M51.23,59.53a6.23,6.23,0,0,0-2.83,4.91c0,1.8,1.28,2.53,2.85,1.62a6.23,6.23,0,0,0,2.83-4.9C54.08,59.35,52.8,58.63,51.23,59.53Z"/><path class="cls-8" d="M51.23,60.67a4.07,4.07,0,0,0-1.84,3.19c0,1.17.84,1.65,1.86,1.06a4.07,4.07,0,0,0,1.84-3.19C53.08,60.56,52.25,60.09,51.23,60.67Z"/><polygon class="cls-6" points="44.11 89.99 78.22 70.3 78.22 65.17 44.11 84.86 44.11 89.99"/><polygon class="cls-9" points="45.16 88.61 77.17 70.13 77.17 66.56 45.16 85.03 45.16 88.61"/><g class="cls-13"><line class="cls-11" x1="44.4" y1="87.26" x2="77.94" y2="67.9"/><line class="cls-11" x1="73.17" y1="68.04" x2="73.17" y2="72.89"/><line class="cls-11" x1="69.17" y1="70.35" x2="69.17" y2="75.2"/><line class="cls-11" x1="65.17" y1="72.66" x2="65.17" y2="77.51"/><line class="cls-11" x1="61.17" y1="74.97" x2="61.17" y2="79.82"/><line class="cls-11" x1="57.17" y1="77.28" x2="57.17" y2="82.13"/><line class="cls-11" x1="53.17" y1="79.59" x2="53.17" y2="84.44"/><line class="cls-11" x1="49.17" y1="81.9" x2="49.17" y2="86.75"/></g><polygon class="cls-2" points="40.5 41.74 40.5 51.71 81 28.33 73.84 22.49 40.5 41.74"/><polygon class="cls-4" points="7.16 22.5 0 28.33 40.5 51.71 40.5 41.74 7.16 22.5"/><path class="cls-7" d="M23.8,18.58a12.54,12.54,0,0,1,5.69,9.85c0,3.62-2.58,5.08-5.73,3.26a12.54,12.54,0,0,1-5.69-9.85C18.08,18.22,20.65,16.76,23.8,18.58Z"/><path class="cls-7" d="M30.05,15a12.54,12.54,0,0,1,5.69,9.85c0,3.62-2.57,5.08-5.73,3.26a12.52,12.52,0,0,1-5.68-9.85C24.34,14.68,26.9,13.22,30.05,15Z"/><path class="cls-7" d="M36.3,11.5A12.52,12.52,0,0,1,42,21.35c0,3.63-2.57,5.09-5.72,3.27a12.55,12.55,0,0,1-5.69-9.86C30.59,11.14,33.15,9.68,36.3,11.5Z"/><path class="cls-7" d="M42.56,8a12.55,12.55,0,0,1,5.69,9.86c0,3.62-2.58,5.08-5.73,3.26a12.54,12.54,0,0,1-5.69-9.85C36.84,7.6,39.41,6.14,42.56,8Z"/><path class="cls-7" d="M48.81,4.43a12.54,12.54,0,0,1,5.69,9.85c0,3.62-2.58,5.08-5.73,3.26a12.54,12.54,0,0,1-5.69-9.85C43.09,4.07,45.66,2.61,48.81,4.43Z"/><path class="cls-7" d="M55.06.89a12.54,12.54,0,0,1,5.69,9.85c0,3.62-2.57,5.08-5.73,3.26a12.53,12.53,0,0,1-5.68-9.85C49.35.53,51.91-.93,55.06.89Z"/><path class="cls-7" d="M15.8,50V37.11s6.41.94,8-5.42"/><polygon class="cls-4" points="40.5 103.52 40.5 99.2 0 75.81 7.16 84.28 40.5 103.52"/></g></g></svg>