<svg xmlns="http://www.w3.org/2000/svg" xmlns:xlink="http://www.w3.org/1999/xlink" viewBox="0 0 100 57.3"><defs><style>.cls-1{fill:#4a6cb8;}.cls-2{fill:#33c0c9;}.cls-3{fill:#00b0bc;}.cls-4{fill:url(#New_Gradient_Swatch);}.cls-5{fill:#fff;}.cls-6{fill:#f6f3f7;}</style><linearGradient id="New_Gradient_Swatch" x1="26.52" y1="25.86" x2="90" y2="82.79" gradientUnits="userSpaceOnUse"><stop offset="0" stop-color="#f6f3f7"/><stop offset="1" stop-color="#77488a"/></linearGradient></defs><title>09_data mining</title><g id="Layer_2" data-name="Layer 2"><g id="NatWest-longform_3-digitisation-desktop"><path class="cls-1" d="M82.08,10.23a5.15,5.15,0,0,0-2.39-4.14,2.55,2.55,0,0,0-1.28-.38,1.76,1.76,0,0,0-1,.32h0L72.36,9l3.94,6,4.92-2.85h0A2.13,2.13,0,0,0,82.08,10.23Z"/><path class="cls-2" d="M79.69,6.09a2.55,2.55,0,0,0-1.28-.38,1.76,1.76,0,0,0-1,.32h0L72.36,9l1.51,2.3,7-4.16A4.26,4.26,0,0,0,79.69,6.09Z"/><path class="cls-2" d="M42.82.8s17.9-4,34.74,5.72C92.24,15,100,31.26,100,31.26L71.52,11.51S52.35,2.06,42.82.8Z"/><path class="cls-3" d="M42.82.8s11.84-2,29.09,7.28A98.39,98.39,0,0,1,100,31.26L98.53,35S84.39,21.78,70,13.5A183.66,183.66,0,0,0,42.82.8Z"/><path class="cls-1" d="M76.46,13.47a5.23,5.23,0,0,0-2.39-4.14A2.55,2.55,0,0,0,72.79,9a1.79,1.79,0,0,0-1,.32h0l-5,2.94,4,6,4.92-2.85h0A2.14,2.14,0,0,0,76.46,13.47Z"/><path class="cls-2" d="M74.07,9.33A2.55,2.55,0,0,0,72.79,9a1.79,1.79,0,0,0-1,.32h0l-5,2.94,1.52,2.3,7-4.17A4.42,4.42,0,0,0,74.07,9.33Z"/><path class="cls-3" d="M69.55,18.6a2.61,2.61,0,0,1-1.28-.38,5.24,5.24,0,0,1-2.39-4.15,1.92,1.92,0,0,1,1.86-2.16,2.59,2.59,0,0,1,1.28.37,5.24,5.24,0,0,1,2.39,4.15A1.93,1.93,0,0,1,69.55,18.6Z"/><path class="cls-4" d="M70.68,16.42a4.46,4.46,0,0,0-2-3.5,1.41,1.41,0,0,0-1.49-.12h0L.89,50.37,4.7,57.11,70.08,17.73h0A1.41,1.41,0,0,0,70.68,16.42Z"/><path class="cls-5" d="M69.58,13.71a3.62,3.62,0,0,0-.93-.79,1.41,1.41,0,0,0-1.49-.12h0L.89,50.37l1.82,3.22Z"/><path class="cls-6" d="M2.76,50.6a6,6,0,0,1,2.75,4.75c0,1.74-1.25,2.45-2.77,1.57A6.05,6.05,0,0,1,0,52.17C0,50.42,1.24,49.72,2.76,50.6Z"/></g></g></svg>