<svg xmlns="http://www.w3.org/2000/svg" viewBox="0 0 100 62.08"><defs><style>.cls-1{fill:#00b0bc;}.cls-2{fill:#4a6cb8;}.cls-3{fill:#26bcc6;}.cls-4{fill:#fff;}.cls-5{fill:none;stroke:#fff;stroke-miterlimit:10;stroke-width:0.3px;}.cls-6{fill:#42145f;}.cls-7{fill:#490b63;}</style></defs><title>08_internet of things</title><g id="Layer_2" data-name="Layer 2"><g id="NatWest-longform_3-digitisation-desktop"><path class="cls-1" d="M100,43.9h0V39.78l-8.48-1.66L33.94,4.87a6,6,0,0,0-5.43,0L4.33,18.92,0,18.07v4.29H0a1.91,1.91,0,0,0,1.13,1.57l64.93,37.5a6,6,0,0,0,5.43,0L98.88,45.51A1.87,1.87,0,0,0,100,43.9Z"/><path class="cls-2" d="M68.82,25V62.08a5.39,5.39,0,0,0,2.67-.65L98.88,45.51A1.87,1.87,0,0,0,100,43.9h0V39.78l-8.48-1.66Z"/><path class="cls-3" d="M98.87,38.15c1.5.87,1.51,2.28,0,3.15L71.49,57.21a6,6,0,0,1-5.43,0L1.13,19.71c-1.5-.86-1.51-2.27,0-3.14L28.51.65a6,6,0,0,1,5.43,0Z"/><polygon class="cls-4" points="90.24 35.65 61.67 52.24 7.42 20.89 35.98 4.29 90.24 35.65"/><ellipse class="cls-5" cx="79.71" cy="46.56" rx="2.18" ry="3.77" transform="translate(32.93 126.14) rotate(-89.84)"/><path class="cls-6" d="M18.31,9.19c.4.23.41.61,0,.84a1.61,1.61,0,0,1-1.45,0,.44.44,0,0,1,0-.84A1.59,1.59,0,0,1,18.31,9.19Z"/><path class="cls-7" d="M88.4,49.32V50a.24.24,0,0,1-.12.2l-6,3.51a.11.11,0,0,1-.16-.1v-.7a.16.16,0,0,1,.08-.14l6.09-3.53A.1.1,0,0,1,88.4,49.32Z"/></g></g></svg>