<svg xmlns="http://www.w3.org/2000/svg" xmlns:xlink="http://www.w3.org/1999/xlink" viewBox="0 0 44.89 100"><defs><style>.cls-1,.cls-5{fill:none;}.cls-2{fill:#fff;}.cls-3{fill:#f8f4fa;}.cls-4{clip-path:url(#clip-path);}.cls-5{stroke:#4a6cb8;stroke-miterlimit:10;stroke-width:0.21px;}.cls-6{fill:url(#New_Gradient_Swatch);}</style><clipPath id="clip-path"><path class="cls-1" d="M44.89,37.19V13.05L41.3,10.3V6.87L22.93,0,11.82,5.19V12l-.77-4.78L4.36,10.54,0,25.54l12.85,22L10.08,90.67c0,.21,0,.42,0,.63h0c0,2.23,1.49,4.45,4.44,6.15,5.88,3.4,15.38,3.4,21.23,0,2.92-1.7,4.37-3.92,4.36-6.15h0a4.41,4.41,0,0,0,0-.52l-2.77-43.2V44.83Z"/></clipPath><linearGradient id="New_Gradient_Swatch" x1="21.39" y1="25.55" x2="93.93" y2="179.37" gradientUnits="userSpaceOnUse"><stop offset="0" stop-color="#f6f3f7"/><stop offset="1" stop-color="#77488a"/></linearGradient></defs><title>fist</title><g id="Layer_2" data-name="Layer 2"><g id="NatWest-longform_3-digitisation-thubmnail"><path class="cls-2" d="M44.89,37.19V13.05L41.3,10.3V6.87L22.93,0,11.82,5.19V12l-.77-4.78L4.36,10.54,0,25.54l12.85,22L10.08,90.67c0,.21,0,.42,0,.63h0c0,2.23,1.49,4.45,4.44,6.15,5.88,3.4,15.38,3.4,21.23,0,2.92-1.7,4.37-3.92,4.36-6.15h0a4.41,4.41,0,0,0,0-.52l-2.77-43.2V44.83Z"/><polygon class="cls-3" points="8.98 18.95 8.21 21.66 28.03 35.11 35.36 30.02 33.8 22.14 33.8 28.6 28.94 31.69 12.31 20.99 12.31 17.69 8.98 18.95"/><g class="cls-4"><polyline class="cls-5" points="41.3 10.29 26.3 17.26 26.3 29.99 28.94 31.69 33.8 28.6 33.8 22.14"/><polyline class="cls-5" points="37.69 4.48 21.07 12.39 21.07 26.58"/><polyline class="cls-5" points="28.94 31.69 12.31 20.99 12.31 10.16 30.25 1.61"/></g><path class="cls-3" d="M21,15.45a5.24,5.24,0,0,1-6.14,4.26L9,19l1-3.64Z"/><path class="cls-2" d="M10,15.31l1.63,1.3a6.34,6.34,0,0,0,8.08-.11L21,15.45,11.05,7.26"/><path class="cls-6" d="M35.36,30,28,35.11,8.21,21.66,27.07,41.9v58a20.49,20.49,0,0,0,8.64-2.47c2.92-1.7,4.37-3.92,4.36-6.15h0a4.41,4.41,0,0,0,0-.52l-2.77-43.2V44.83l7.62-7.64V13.05L33.8,22.14Z"/></g></g></svg>