<svg xmlns="http://www.w3.org/2000/svg" xmlns:xlink="http://www.w3.org/1999/xlink" viewBox="0 0 468.55 519.41"><defs><style>.cls-1{fill:url(#linear-gradient);}.cls-2{fill:#fff;}.cls-3{fill:#f5f3f7;}.cls-4{fill:url(#linear-gradient-2);}.cls-5{fill:#7489c3;}.cls-6{fill:#516cb4;}.cls-7{fill:#38c2c9;}.cls-8{fill:url(#linear-gradient-3);}.cls-9{fill:#06b3bb;}.cls-10{fill:#42145f;}</style><linearGradient id="linear-gradient" x1="193.72" y1="318.92" x2="302.6" y2="388.2" gradientUnits="userSpaceOnUse"><stop offset="0" stop-color="#42145f" stop-opacity="0.25"/><stop offset="1" stop-color="#42145f" stop-opacity="0.75"/></linearGradient><linearGradient id="linear-gradient-2" x1="128.33" y1="213.71" x2="651.78" y2="460.87" gradientUnits="userSpaceOnUse"><stop offset="0" stop-color="#f5f3f7"/><stop offset="1" stop-color="#714f87"/></linearGradient><linearGradient id="linear-gradient-3" x1="309.65" y1="375.83" x2="315.12" y2="381.67" xlink:href="#linear-gradient-2"/></defs><title>boombox</title><g id="Layer_2" data-name="Layer 2"><g id="Layer_4" data-name="Layer 4"><path class="cls-1" d="M206.59,243.09c-2.64-15.61-16.3-33.84-30.5-40.71a31.72,31.72,0,0,0-3.83-1.55c11,8.67,20.29,23,22.43,35.57,1.51,8.95-.93,15.08-6,17.4l0,0s-20.57,9.37-32.43,20.38c-3.38,3.14-6.42,9.1-9,15.81a261.69,261.69,0,0,0-8,25.65c-.25,1-.52,2-.83,3l-.12.45,0,0c-4.61,14.38-15.29,25.63-29.55,30.33a41.12,41.12,0,0,1-2.69,9.08,54.71,54.71,0,0,1-28-7.62,54.16,54.16,0,0,0,31.22,7.5c19.91-1.5,35.18-14.6,41-32.6l0,0,.12-.45c.31-1,.58-2,.83-3a263.9,263.9,0,0,1,8-25.65c2.62-6.71,5.67-12.67,9-15.81,11.86-11,32.43-20.38,32.43-20.38l0,0C205.66,258.17,208.11,252,206.59,243.09Z"/><polygon class="cls-2" points="384.64 0 0 222.07 83.91 270.06 468.55 47.99 384.64 0"/><polygon class="cls-3" points="84.58 519.41 0.67 471.42 0 222.07 83.91 270.06 84.58 519.41"/><polygon class="cls-4" points="468.55 47.99 83.91 270.06 84.58 519.41 468.55 297.73 468.55 47.99"/><polygon class="cls-5" points="83.91 270.06 84.11 354.84 468.55 132.89 468.55 47.99 83.91 270.06"/><path class="cls-2" d="M364.31,332.52c-21.34,0-35.17-17.35-35.25-44.21-.11-37.81,26.57-84,59.47-103,9.62-5.56,18.91-8.38,27.59-8.38,21.34,0,35.17,17.36,35.25,44.22.11,37.81-26.57,84-59.47,103C382.27,329.71,373,332.52,364.31,332.52Z"/><ellipse class="cls-6" cx="390.21" cy="254.72" rx="81.98" ry="47.48" transform="translate(-26.09 464.12) rotate(-59.84)"/><path class="cls-5" d="M364.31,318.85c-19.94,0-21.56-23.41-21.58-30.58-.09-32.87,24-74.6,52.63-91.13,7.42-4.28,14.6-6.54,20.76-6.54,19.94,0,21.56,23.4,21.58,30.58.09,32.87-24,74.6-52.63,91.12C377.65,316.59,370.47,318.85,364.31,318.85Z"/><path class="cls-6" d="M383.66,271c-5.05,0-5.46-5.93-5.47-7.74,0-8.33,6.08-18.89,13.33-23.07a10.82,10.82,0,0,1,5.25-1.66c5.05,0,5.46,5.92,5.47,7.74,0,8.32-6.08,18.89-13.33,23.07A10.82,10.82,0,0,1,383.66,271Z"/><path class="cls-2" d="M385.74,270c-4.49,0-4.85-5.27-4.85-6.88,0-7.39,5.39-16.77,11.83-20.49a9.69,9.69,0,0,1,4.66-1.47c4.49,0,4.85,5.26,4.86,6.88,0,7.39-5.4,16.77-11.84,20.48A9.58,9.58,0,0,1,385.74,270Z"/><path class="cls-2" d="M399.36,241.51c6.67,3.15,7.83,12.25,4.05,19.49-4.15,7.95-14.88,12-20.25,8.17"/><path class="cls-2" d="M435.75,143.79c-5.69,0-9.38-4.62-9.4-11.79,0-10.08,7.09-22.4,15.86-27.47a14.86,14.86,0,0,1,7.36-2.23c5.69,0,9.38,4.63,9.4,11.79,0,10.08-7.09,22.41-15.86,27.47A14.86,14.86,0,0,1,435.75,143.79Z"/><ellipse class="cls-6" cx="442.66" cy="123.05" rx="21.86" ry="12.66" transform="translate(113.86 443.95) rotate(-59.84)"/><path class="cls-5" d="M435.75,140.15c-5.32,0-5.75-6.24-5.75-8.16,0-8.76,6.4-19.89,14-24.3a11.5,11.5,0,0,1,5.54-1.75c5.31,0,5.75,6.25,5.75,8.16,0,8.77-6.4,19.9-14,24.3A11.53,11.53,0,0,1,435.75,140.15Z"/><path class="cls-6" d="M440.91,127.38c-1.35,0-1.46-1.58-1.46-2.07a8,8,0,0,1,3.56-6.15,2.87,2.87,0,0,1,1.4-.44c1.34,0,1.45,1.58,1.45,2.06a7.94,7.94,0,0,1-3.55,6.15A2.89,2.89,0,0,1,440.91,127.38Z"/><path class="cls-2" d="M441.46,127.11c-1.19,0-1.29-1.4-1.29-1.83a7.09,7.09,0,0,1,3.16-5.47,2.61,2.61,0,0,1,1.24-.39c1.2,0,1.29,1.4,1.29,1.84a7,7,0,0,1-3.15,5.46A2.57,2.57,0,0,1,441.46,127.11Z"/><path class="cls-2" d="M445.1,119.52c1.78.84,2.08,3.27,1.08,5.2-1.11,2.12-4,3.2-5.4,2.18"/><path class="cls-2" d="M137.63,471.45c-21.34,0-35.18-17.35-35.26-44.21-.1-37.81,26.57-84,59.47-103,9.63-5.56,18.91-8.38,27.59-8.38,21.34,0,35.18,17.36,35.25,44.22.11,37.8-26.57,84-59.46,103C155.59,468.63,146.3,471.45,137.63,471.45Z"/><ellipse class="cls-6" cx="163.53" cy="393.65" rx="81.98" ry="47.48" transform="matrix(0.5, -0.86, 0.86, 0.5, -258.99, 337.25)"/><path class="cls-5" d="M137.62,457.78c-19.94,0-21.55-23.41-21.57-30.58-.1-32.87,24-74.61,52.63-91.13,7.41-4.28,14.59-6.55,20.75-6.55,19.94,0,21.56,23.41,21.58,30.59.09,32.87-24,74.6-52.63,91.12C151,455.51,143.79,457.78,137.62,457.78Z"/><path class="cls-6" d="M157,409.89c-5.05,0-5.46-5.93-5.46-7.75,0-8.32,6.08-18.88,13.32-23.07a10.94,10.94,0,0,1,5.26-1.65c5,0,5.45,5.92,5.46,7.74,0,8.32-6.08,18.89-13.32,23.07A11,11,0,0,1,157,409.89Z"/><path class="cls-2" d="M159.05,408.89c-4.48,0-4.85-5.26-4.85-6.87,0-7.39,5.4-16.78,11.83-20.49a9.7,9.7,0,0,1,4.67-1.47c4.48,0,4.85,5.26,4.85,6.87,0,7.39-5.4,16.78-11.83,20.49A9.7,9.7,0,0,1,159.05,408.89Z"/><path class="cls-2" d="M172.67,380.44c6.68,3.15,7.83,12.24,4.05,19.48-4.14,7.95-14.88,12-20.25,8.18"/><polygon class="cls-2" points="238.05 265.72 238.05 430.81 321.45 382.65 321.45 217.57 238.05 265.72"/><polygon class="cls-6" points="238.05 326.42 238.05 374.21 321.45 326.05 321.45 278.27 238.05 326.42"/><polygon class="cls-5" points="246.05 331.04 313.45 292.12 313.45 321.43 246.05 360.35 246.05 331.04"/><path class="cls-6" d="M292.82,301.92c3.07-1.77,5.56-.35,5.57,3.17a12.18,12.18,0,0,1-5.53,9.58c-3.06,1.77-5.55.34-5.56-3.18A12.19,12.19,0,0,1,292.82,301.92Z"/><path class="cls-6" d="M268.52,316.19c3.06-1.77,5.55-.34,5.56,3.17a12.18,12.18,0,0,1-5.53,9.58c-3.06,1.77-5.55.34-5.56-3.18A12.18,12.18,0,0,1,268.52,316.19Z"/><polygon class="cls-7" points="309.93 294.16 309.93 318.94 246.05 355.83 246.05 360.35 313.45 321.43 313.45 292.12 309.93 294.16"/><polygon class="cls-7" points="313.45 321.43 309.93 318.94 246.05 355.83 246.05 360.35 313.45 321.43"/><polygon class="cls-2" points="308.81 363.89 315.52 374.52 307.52 379.18 300.81 368.54 308.81 363.89"/><polygon class="cls-3" points="300.81 368.54 307.52 379.18 307.52 381.14 300.81 377.87 300.81 368.54"/><polygon class="cls-8" points="315.52 374.52 307.52 379.18 307.52 381.14 315.52 376.49 315.52 374.52"/><polygon class="cls-7" points="296.91 370.86 303.61 381.5 295.61 386.15 288.91 375.51 296.91 370.86"/><polygon class="cls-9" points="288.91 375.51 295.61 386.15 295.61 388.11 288.91 384.84 288.91 375.51"/><polygon class="cls-6" points="303.61 381.5 295.61 386.15 295.61 388.11 303.61 383.46 303.61 381.5"/><polygon class="cls-7" points="285 377.84 291.71 388.47 283.71 393.13 277 382.49 285 377.84"/><polygon class="cls-9" points="277 382.49 283.71 393.13 283.71 395.09 277 391.82 277 382.49"/><polygon class="cls-6" points="291.71 388.47 283.71 393.13 283.71 395.09 291.71 390.44 291.71 388.47"/><polygon class="cls-7" points="273.1 384.81 279.81 395.45 271.81 400.1 265.1 389.46 273.1 384.81"/><polygon class="cls-9" points="265.1 389.46 271.81 400.1 271.81 402.06 265.1 398.79 265.1 389.46"/><polygon class="cls-6" points="279.81 395.45 271.81 400.1 271.81 402.06 279.81 397.41 279.81 395.45"/><polygon class="cls-7" points="261.19 391.79 267.9 402.42 259.9 407.07 253.19 396.44 261.19 391.79"/><polygon class="cls-9" points="253.19 396.44 259.9 407.07 259.9 409.04 253.19 405.77 253.19 396.44"/><polygon class="cls-6" points="267.9 402.42 259.9 407.07 259.9 409.04 267.9 404.38 267.9 402.42"/><polygon class="cls-9" points="254.02 384.06 253.19 383.65 253.19 385.61 254.02 386.02 254.02 384.06"/><polygon class="cls-7" points="262.02 379.4 261.19 379.02 253.19 383.65 254.02 384.06 262.02 379.4"/><polygon class="cls-6" points="262.02 379.4 254.02 384.06 254.02 386.02 262.02 381.37 262.02 379.4"/><polygon class="cls-9" points="265.92 377.05 265.1 376.65 265.1 378.61 265.92 379.02 265.92 377.05"/><polygon class="cls-7" points="273.92 372.4 273.1 372.01 265.1 376.65 265.92 377.05 273.92 372.4"/><polygon class="cls-6" points="273.92 372.4 265.92 377.05 265.92 379.02 273.92 374.36 273.92 372.4"/><polygon class="cls-9" points="277.82 370.05 277 369.64 277 371.61 277.82 372.01 277.82 370.05"/><polygon class="cls-7" points="285.82 365.4 285 365.01 277 369.64 277.82 370.05 285.82 365.4"/><polygon class="cls-6" points="285.82 365.4 277.82 370.05 277.82 372.01 285.82 367.36 285.82 365.4"/><polygon class="cls-9" points="289.73 363.05 288.91 362.64 288.91 364.6 289.73 365.01 289.73 363.05"/><polygon class="cls-7" points="297.73 358.39 296.91 358.01 288.91 362.64 289.73 363.05 297.73 358.39"/><polygon class="cls-6" points="297.73 358.39 289.73 363.05 289.73 365.01 297.73 360.36 297.73 358.39"/><polygon class="cls-9" points="301.63 356.05 300.81 355.64 300.81 357.6 301.63 358.01 301.63 356.05"/><polygon class="cls-7" points="309.63 351.39 308.81 351.01 300.81 355.64 301.63 356.05 309.63 351.39"/><polygon class="cls-6" points="309.63 351.39 301.63 356.05 301.63 358.01 309.63 353.36 309.63 351.39"/><path class="cls-9" d="M250.4,282.94h0a3.06,3.06,0,0,0-3,.32,9.44,9.44,0,0,0-4.29,7.43,3,3,0,0,0,1.3,2.78h0l4.94,3,5.94-10.56Z"/><path class="cls-7" d="M250.4,282.94h0a3.06,3.06,0,0,0-3,.32,8.08,8.08,0,0,0-2,1.75l7.53,4.86.24-.15,2.15-3.83Z"/><path class="cls-6" d="M252.23,286.2c2.38-1.37,4.31-.27,4.32,2.46a9.44,9.44,0,0,1-4.29,7.43c-2.37,1.37-4.3.27-4.31-2.46A9.44,9.44,0,0,1,252.23,286.2Z"/><path class="cls-9" d="M268.76,272.21h0a3.09,3.09,0,0,0-3,.33,9.44,9.44,0,0,0-4.28,7.42,3,3,0,0,0,1.3,2.79h0l4.94,3,5.94-10.57Z"/><path class="cls-7" d="M268.76,272.21h0a3.09,3.09,0,0,0-3,.33,7.69,7.69,0,0,0-2,1.75l7.53,4.86.23-.15,2.16-3.84Z"/><path class="cls-6" d="M270.59,275.48c2.38-1.38,4.31-.28,4.32,2.46a9.47,9.47,0,0,1-4.29,7.43c-2.38,1.37-4.31.26-4.31-2.47A9.44,9.44,0,0,1,270.59,275.48Z"/><path class="cls-9" d="M287.11,261.26h0a3.08,3.08,0,0,0-3,.33,9.44,9.44,0,0,0-4.28,7.43,3,3,0,0,0,1.3,2.78h0l4.94,3L292,264.2Z"/><path class="cls-7" d="M287.11,261.26h0a3.08,3.08,0,0,0-3,.33,7.69,7.69,0,0,0-2,1.75l7.53,4.86.23-.15L292,264.2Z"/><path class="cls-6" d="M289,264.52c2.38-1.38,4.31-.28,4.31,2.46a9.45,9.45,0,0,1-4.28,7.43c-2.38,1.37-4.31.26-4.32-2.46A9.42,9.42,0,0,1,289,264.52Z"/><path class="cls-9" d="M309.29,243.88h0c-1.31-.72-3.1-.59-5.08.55a15.87,15.87,0,0,0-7.21,12.5c0,2.33.84,4,2.19,4.69h0l8.31,5,10-17.79Z"/><path class="cls-7" d="M309.29,243.88h0c-1.31-.72-3.1-.59-5.08.55a12.85,12.85,0,0,0-3.4,2.95l12.68,8.18.39-.25,3.63-6.46Z"/><path class="cls-6" d="M312.38,249.38c4-2.32,7.26-.46,7.27,4.14A15.93,15.93,0,0,1,312.43,266c-4,2.31-7.25.45-7.27-4.15A15.91,15.91,0,0,1,312.38,249.38Z"/><polygon class="cls-6" points="394.46 169.31 401.1 165.48 401.1 125.93 394.46 129.76 394.46 169.31"/><polygon class="cls-9" points="390.44 137.97 388.75 137.14 388.75 142.38 390.44 143.22 390.44 137.97"/><polygon class="cls-7" points="406.81 128.45 405.13 127.66 388.75 137.14 390.44 137.97 406.81 128.45"/><polygon class="cls-6" points="406.81 128.45 390.44 137.97 390.44 143.22 406.81 133.69 406.81 128.45"/><polygon class="cls-6" points="370.13 183.25 376.77 179.42 376.77 139.86 370.13 143.69 370.13 183.25"/><polygon class="cls-9" points="366.1 175.78 364.42 174.94 364.42 180.18 366.1 181.02 366.1 175.78"/><polygon class="cls-7" points="382.48 166.25 380.8 165.46 364.42 174.94 366.1 175.78 382.48 166.25"/><polygon class="cls-6" points="382.48 166.25 366.1 175.78 366.1 181.02 382.48 171.49 382.48 166.25"/><polygon class="cls-6" points="345.8 197.32 352.44 193.49 352.44 153.94 345.8 157.77 345.8 197.32"/><polygon class="cls-9" points="341.77 175.38 340.09 174.55 340.09 179.79 341.77 180.62 341.77 175.38"/><polygon class="cls-7" points="358.15 165.85 356.47 165.06 340.09 174.55 341.77 175.38 358.15 165.85"/><polygon class="cls-6" points="358.15 165.85 341.77 175.38 341.77 180.62 358.15 171.09 358.15 165.85"/><polygon class="cls-6" points="321.47 211.34 328.11 207.51 328.11 167.95 321.47 171.79 321.47 211.34"/><polygon class="cls-9" points="317.44 198.7 315.76 197.86 315.76 203.1 317.44 203.94 317.44 198.7"/><polygon class="cls-7" points="333.82 189.17 332.14 188.38 315.76 197.86 317.44 198.7 333.82 189.17"/><polygon class="cls-6" points="333.82 189.17 317.44 198.7 317.44 203.94 333.82 194.41 333.82 189.17"/><polygon class="cls-6" points="297.14 225.38 303.77 221.55 303.77 182 297.14 185.83 297.14 225.38"/><polygon class="cls-9" points="293.11 198.7 291.43 197.86 291.43 203.1 293.11 203.94 293.11 198.7"/><polygon class="cls-7" points="309.49 189.17 307.8 188.38 291.43 197.86 293.11 198.7 309.49 189.17"/><polygon class="cls-6" points="309.49 189.17 293.11 198.7 293.11 203.94 309.49 194.41 309.49 189.17"/><polygon class="cls-7" points="423.06 109.28 425.38 110.59 462.15 84.04 466.8 57.84 464.48 56.53 423.06 80.44 423.06 109.28"/><polygon class="cls-6" points="425.38 110.59 466.8 86.68 466.8 57.84 425.38 81.76 425.38 110.59"/><polygon class="cls-9" points="425.38 81.76 423.06 80.44 423.06 109.28 425.38 110.59 425.38 81.76"/><path class="cls-2" d="M104.19,336.82c-5.69,0-9.38-4.63-9.4-11.8,0-10.08,7.08-22.4,15.85-27.47a14.89,14.89,0,0,1,7.36-2.23c5.69,0,9.38,4.63,9.4,11.79,0,10.08-7.08,22.41-15.86,27.47A14.85,14.85,0,0,1,104.19,336.82Z"/><ellipse class="cls-6" cx="111.09" cy="316.07" rx="21.86" ry="12.66" transform="translate(-218 253.31) rotate(-59.84)"/><path class="cls-5" d="M104.19,333.17c-5.32,0-5.75-6.24-5.76-8.16,0-8.76,6.4-19.89,14-24.3A11.47,11.47,0,0,1,118,299c5.32,0,5.75,6.24,5.76,8.15,0,8.77-6.41,19.9-14,24.3A11.39,11.39,0,0,1,104.19,333.17Z"/><path class="cls-6" d="M109.35,320.4c-1.35,0-1.46-1.58-1.46-2.07a8,8,0,0,1,3.55-6.15,2.9,2.9,0,0,1,1.4-.44c1.35,0,1.46,1.58,1.46,2.06a8,8,0,0,1-3.55,6.16A3,3,0,0,1,109.35,320.4Z"/><path class="cls-2" d="M109.9,320.13c-1.2,0-1.29-1.4-1.29-1.83a7.06,7.06,0,0,1,3.15-5.46,2.59,2.59,0,0,1,1.25-.4c1.19,0,1.29,1.41,1.29,1.84a7,7,0,0,1-3.16,5.46A2.51,2.51,0,0,1,109.9,320.13Z"/><path class="cls-2" d="M113.53,312.54c1.78.84,2.09,3.27,1.08,5.2-1.1,2.12-4,3.2-5.4,2.18"/><polygon class="cls-7" points="91.49 302.3 93.81 303.61 130.58 277.06 135.23 250.87 132.91 249.55 91.49 273.46 91.49 302.3"/><polygon class="cls-6" points="93.81 303.61 135.23 279.7 135.23 250.87 93.81 274.78 93.81 303.61"/><polygon class="cls-9" points="93.81 274.78 91.49 273.46 91.49 302.3 93.81 303.61 93.81 274.78"/><polygon class="cls-9" points="139.93 283.78 138.24 282.95 138.24 288.19 139.93 289.02 139.93 283.78"/><polygon class="cls-7" points="156.3 274.25 154.62 273.46 138.24 282.95 139.93 283.78 156.3 274.25"/><polygon class="cls-6" points="156.3 274.25 139.93 283.78 139.93 289.02 156.3 279.5 156.3 274.25"/><polygon class="cls-9" points="139.93 298.66 138.24 297.82 138.24 303.06 139.93 303.9 139.93 298.66"/><polygon class="cls-7" points="156.3 289.13 154.62 288.34 138.24 297.82 139.93 298.66 156.3 289.13"/><polygon class="cls-6" points="156.3 289.13 139.93 298.66 139.93 303.9 156.3 294.37 156.3 289.13"/><polygon class="cls-9" points="139.93 313.54 138.24 312.7 138.24 317.94 139.93 318.78 139.93 313.54"/><polygon class="cls-7" points="156.3 304.01 154.62 303.22 138.24 312.7 139.93 313.54 156.3 304.01"/><polygon class="cls-6" points="156.3 304.01 139.93 313.54 139.93 318.78 156.3 309.25 156.3 304.01"/><polygon class="cls-9" points="163.79 269.3 162.11 268.46 162.11 273.7 163.79 274.54 163.79 269.3"/><polygon class="cls-7" points="180.17 259.77 178.49 258.98 162.11 268.46 163.79 269.3 180.17 259.77"/><polygon class="cls-6" points="180.17 259.77 163.79 269.3 163.79 274.54 180.17 265.01 180.17 259.77"/><polygon class="cls-9" points="163.79 284.18 162.11 283.34 162.11 288.58 163.79 289.42 163.79 284.18"/><polygon class="cls-7" points="180.17 274.65 178.49 273.86 162.11 283.34 163.79 284.18 180.17 274.65"/><polygon class="cls-6" points="180.17 274.65 163.79 284.18 163.79 289.42 180.17 279.89 180.17 274.65"/><polygon class="cls-9" points="163.79 299.05 162.11 298.22 162.11 303.46 163.79 304.29 163.79 299.05"/><polygon class="cls-7" points="180.17 289.53 178.49 288.74 162.11 298.22 163.79 299.05 180.17 289.53"/><polygon class="cls-6" points="180.17 289.53 163.79 299.05 163.79 304.29 180.17 294.77 180.17 289.53"/><path class="cls-9" d="M210.91,243.84h0c-1.31-.72-3.1-.59-5.08.55a15.87,15.87,0,0,0-7.21,12.5c0,2.33.84,4,2.19,4.69h0l8.31,5,10-17.79Z"/><path class="cls-7" d="M210.91,243.84h0c-1.31-.72-3.1-.59-5.08.55a12.85,12.85,0,0,0-3.4,3l12.68,8.18.39-.25,3.63-6.46Z"/><path class="cls-6" d="M214,249.34c4-2.32,7.26-.46,7.27,4.14A15.94,15.94,0,0,1,214.05,266c-4,2.31-7.25.45-7.27-4.15A15.89,15.89,0,0,1,214,249.34Z"/><path class="cls-9" d="M241.89,225.87h0c-1.31-.72-3.1-.59-5.08.55a15.87,15.87,0,0,0-7.21,12.5c0,2.33.84,4,2.19,4.69h0l8.31,5,10-17.79Z"/><path class="cls-7" d="M241.89,225.87h0c-1.31-.72-3.1-.59-5.08.55a13,13,0,0,0-3.41,3l12.69,8.18.39-.25,3.63-6.46Z"/><path class="cls-6" d="M245,231.37c4-2.32,7.26-.46,7.27,4.14A15.93,15.93,0,0,1,245,248c-4,2.31-7.25.45-7.27-4.15A15.91,15.91,0,0,1,245,231.37Z"/><path class="cls-9" d="M272.87,207.9h0c-1.31-.72-3.1-.59-5.07.55A15.91,15.91,0,0,0,260.56,221c0,2.32.85,3.95,2.2,4.68h0l8.31,5,10-17.79Z"/><path class="cls-7" d="M272.87,207.9h0c-1.31-.72-3.1-.59-5.07.55a13.23,13.23,0,0,0-3.41,3l12.68,8.18.39-.25,3.64-6.46Z"/><path class="cls-6" d="M276,213.4c4-2.32,7.25-.46,7.27,4.14A15.91,15.91,0,0,1,276,230.05c-4,2.31-7.25.45-7.26-4.15A15.91,15.91,0,0,1,276,213.4Z"/><polygon class="cls-10" points="148.2 265.29 415.94 110.71 415.94 94.56 148.2 249.14 148.2 265.29"/><polygon class="cls-6" points="175.98 174.41 175.98 134.32 172.78 136.14 172.78 176.23 175.98 174.41"/><polygon class="cls-6" points="295.8 53.42 159.96 131.85 172.78 140.52 308.59 62.12 308.59 57.73 295.8 53.42"/><polygon class="cls-2" points="295.8 50.62 159.96 129.05 172.78 136.14 308.59 57.73 295.8 50.62"/><polygon class="cls-3" points="172.78 176.23 172.78 136.14 159.96 129.05 159.96 169.14 172.78 176.23"/><polygon class="cls-3" points="305.39 99.7 305.39 63.95 292.56 71.36 292.56 92.61 305.39 99.7"/><polygon class="cls-6" points="308.59 97.88 308.59 57.78 305.39 59.61 305.39 99.7 308.59 97.88"/></g></g></svg>