<svg xmlns="http://www.w3.org/2000/svg" xmlns:xlink="http://www.w3.org/1999/xlink" viewBox="0 0 547.41 321.38"><defs><style>.cls-1,.cls-5{fill:none;}.cls-2{fill:#516cb4;}.cls-3{fill:#06b3bb;}.cls-4{clip-path:url(#clip-path);}.cls-5{stroke:#fff;stroke-miterlimit:10;stroke-width:2px;}.cls-6{fill:#38c2c9;}.cls-7{fill:#fff;}.cls-8{isolation:isolate;}</style><clipPath id="clip-path"><path class="cls-1" d="M182.13,122.61c91.36-53.09,142.23-76.38,167.7-86.41,11.84-4.67,27.76-3.79,37.94,2.08l51.17,29.55,59.86,9.08V108c.66,3.9-1,7.92-5,11.36-17.23,14.79-57.27,44.33-148.63,97.42-103,59.85-167.49,89.36-197,101.7-10.62,4.44-25.26,3.75-34.57-1.63L61.89,287,10.13,257.06c-4.66-2.68-7.3-6.15-7.82-9.71V213Z"/></clipPath></defs><title>brick_phone</title><g id="Layer_2" data-name="Layer 2"><g id="Layer_4" data-name="Layer 4"><path class="cls-2" d="M182.13,122.61c91.36-53.09,142.23-76.38,167.7-86.41,11.84-4.67,27.76-3.79,37.94,2.08l51.17,29.55,59.86,9.08V108c.66,3.9-1,7.92-5,11.36-17.23,14.79-57.27,44.33-148.63,97.42-103,59.85-167.49,89.36-197,101.7-10.62,4.44-25.26,3.75-34.57-1.63L61.89,287,10.13,257.06c-4.66-2.68-7.3-6.15-7.82-9.71V213Z"/><path class="cls-3" d="M2.31,247.35c.52,3.56,3.16,7,7.82,9.71L61.89,287l51.76,29.88a37.26,37.26,0,0,0,15.81,4.42V182.14H63.71L2.31,213Z"/><g class="cls-4"><path class="cls-5" d="M500.12,91.94c.66,3.92-1,8-5,11.42-17.33,14.86-57.58,44.56-149.42,97.93-103.55,60.18-168.39,89.85-198,102.25-10.68,4.46-25.4,3.76-34.76-1.64l-52-30-52-30.05c-4.68-2.7-7.34-6.18-7.86-9.76"/></g><path class="cls-3" d="M547.41,34.65a10.65,10.65,0,0,0-4.83-8.37,3.43,3.43,0,0,0-3.47-.32l-75.23,38L475.77,83s70.32-45.31,70.39-45.37h0A3.48,3.48,0,0,0,547.41,34.65Z"/><path class="cls-3" d="M479.51,71.73c4.42,2.55,8,8.72,8,13.79s-3.61,7.11-8,4.56-8-8.71-8-13.78S475.1,69.18,479.51,71.73Z"/><path class="cls-6" d="M493.83,86.13c-17.23,14.79-57.27,44.33-148.63,97.42-103,59.85-167.49,89.36-197,101.7-10.62,4.44-25.26,3.75-34.57-1.63L61.89,253.74,10.13,223.85C.82,218.48-.43,210,7.2,203.83,28.41,186.71,79.14,149.25,182.13,89.4,273.49,36.31,324.36,13,349.83,3c11.84-4.67,27.76-3.79,37.94,2.08l51.17,29.55,51.17,29.54C500.29,70,501.86,79.26,493.83,86.13Z"/><polygon class="cls-2" points="406.39 119.42 322.32 168.27 208.36 102.47 292.42 53.62 406.39 119.42"/><polygon class="cls-3" points="292.42 57.45 403.08 121.34 406.39 119.42 292.42 53.62 208.36 102.47 211.66 104.39 292.42 57.45"/><path class="cls-7" d="M95.75,186.26c7,4,9.24,9.24,5.08,11.66S87.67,199,80.7,195s-9.24-9.24-5.09-11.65S88.78,182.24,95.75,186.26Z"/><path class="cls-7" d="M134.5,208.64c7,4,9.24,9.23,5.08,11.65s-13.16,1.11-20.13-2.91-9.25-9.24-5.09-11.66S127.53,204.61,134.5,208.64Z"/><g class="cls-8"><path class="cls-7" d="M148.84,155.41c7,4,9.24,9.24,5.09,11.65s-13.16,1.11-20.13-2.91-9.24-9.24-5.09-11.65S141.87,151.39,148.84,155.41Z"/><path class="cls-7" d="M122.29,170.84c7,4,9.25,9.23,5.09,11.65s-13.17,1.11-20.13-2.91-9.24-9.24-5.09-11.65S115.33,166.82,122.29,170.84Z"/><path class="cls-7" d="M187.59,177.78c7,4,9.24,9.24,5.09,11.65s-13.17,1.11-20.13-2.91-9.25-9.24-5.1-11.65S180.62,173.76,187.59,177.78Z"/><path class="cls-7" d="M161,193.21c7,4,9.24,9.24,5.09,11.65S153,206,146,202s-9.25-9.24-5.1-11.65S154.08,189.19,161,193.21Z"/><path class="cls-7" d="M226.33,200.15c7,4,9.24,9.24,5.09,11.65s-13.16,1.11-20.13-2.91-9.24-9.24-5.09-11.65S219.36,196.13,226.33,200.15Z"/><path class="cls-7" d="M199.78,215.58c7,4,9.25,9.23,5.09,11.65s-13.17,1.11-20.13-2.91-9.24-9.24-5.09-11.65S192.82,211.55,199.78,215.58Z"/></g><ellipse class="cls-7" cx="139.17" cy="250.8" rx="7.14" ry="15.38" transform="translate(-143.86 297.3) rotate(-70.3)"/><path class="cls-7" d="M108,224.06c7,4,9.24,9.24,5.09,11.65s-13.17,1.12-20.14-2.9-9.24-9.25-5.09-11.66S101,220,108,224.06Z"/><ellipse class="cls-7" cx="61.68" cy="206.06" rx="7.14" ry="15.38" transform="translate(-153.12 194.69) rotate(-70.3)"/><path class="cls-7" d="M173.24,231c7,4,9.24,9.24,5.08,11.66s-13.16,1.11-20.13-2.91-9.24-9.24-5.08-11.66S166.27,227,173.24,231Z"/><path class="cls-7" d="M273.48,172.12l3.34,9.22c-38.92,5.57-65.65-5.42-67.06-6L227.14,162C246.17,173,272.12,172.16,273.48,172.12Z"/><path class="cls-7" d="M240.91,143.67a110.48,110.48,0,0,1,23.81,18.13c-.92.2-18.3,4-40.19-8.61s-15.34-22.72-15-23.25A173.76,173.76,0,0,1,240.91,143.67Z"/><path class="cls-7" d="M191.7,124.9c-.07.79-1.42,15.82,17.61,26.81l-23,10.11c-1-.81-20.08-16.26-10.59-38.83Z"/><path class="cls-3" d="M370.67,73.61c1.56.9,1.58,2.36,0,3.26a6.21,6.21,0,0,1-5.63,0c-1.55-.9-1.56-2.36,0-3.26A6.17,6.17,0,0,1,370.67,73.61Z"/><path class="cls-3" d="M383.87,65.87c1.56.9,1.57,2.36,0,3.26a6.27,6.27,0,0,1-5.63,0c-1.56-.9-1.56-2.36,0-3.26A6.17,6.17,0,0,1,383.87,65.87Z"/><path class="cls-3" d="M397.07,58.13c1.56.9,1.57,2.35,0,3.25a6.19,6.19,0,0,1-5.62,0c-1.56-.9-1.56-2.35,0-3.25A6.17,6.17,0,0,1,397.07,58.13Z"/><path class="cls-3" d="M410.27,50.39c1.55.9,1.57,2.35,0,3.25a6.21,6.21,0,0,1-5.63,0c-1.55-.9-1.56-2.35,0-3.25A6.19,6.19,0,0,1,410.27,50.39Z"/></g></g></svg>