<svg xmlns="http://www.w3.org/2000/svg" xmlns:xlink="http://www.w3.org/1999/xlink" viewBox="0 0 538.1 647.28"><defs><style>.cls-1,.cls-11{fill:none;}.cls-2{fill:#fff;}.cls-3{fill:url(#linear-gradient);}.cls-4{fill:#f4f1f6;}.cls-5{fill:#ece7ef;}.cls-6{fill:#516cb4;}.cls-7{fill:#f5f3f7;}.cls-8{fill:url(#linear-gradient-2);}.cls-9{fill:url(#linear-gradient-3);}.cls-10{clip-path:url(#clip-path);}.cls-11{stroke:#06b3bb;stroke-miterlimit:10;stroke-width:2px;}.cls-12{fill:url(#linear-gradient-4);}</style><linearGradient id="linear-gradient" x1="242.31" y1="403.16" x2="702.26" y2="707.08" gradientUnits="userSpaceOnUse"><stop offset="0" stop-color="#f5f3f7"/><stop offset="1" stop-color="#714f87"/></linearGradient><linearGradient id="linear-gradient-2" x1="202.58" y1="172.97" x2="545.31" y2="413.78" xlink:href="#linear-gradient"/><linearGradient id="linear-gradient-3" x1="248.28" y1="313.13" x2="404.57" y2="422.94" xlink:href="#linear-gradient"/><clipPath id="clip-path"><polygon class="cls-1" points="77.51 324.87 41.93 305.25 41.93 247.39 77.51 266.95 77.51 324.87"/></clipPath><linearGradient id="linear-gradient-4" x1="354.82" y1="527.57" x2="754.68" y2="791.77" xlink:href="#linear-gradient"/></defs><title>computer</title><g id="Layer_2" data-name="Layer 2"><g id="Layer_4" data-name="Layer 4"><polygon class="cls-2" points="230.39 0 29.68 113.88 153.27 181.85 353.98 67.96 230.39 0"/><polygon class="cls-3" points="414.2 346.83 414.2 435.68 211.5 552.71 211.5 463.86 414.2 346.83"/><polygon class="cls-2" points="202.69 229.92 414.2 346.83 211.5 463.86 0 346.94 202.69 229.92"/><polygon class="cls-4" points="0 346.94 0 435.79 211.5 552.71 211.5 463.86 0 346.94"/><polygon class="cls-5" points="285.8 458.54 285.8 420.96 211.5 463.86 211.5 501.44 285.8 458.54"/><polygon class="cls-6" points="228.98 504.71 228.98 499.17 218.02 505.5 218.02 511.04 228.98 504.71"/><polygon class="cls-6" points="228.98 515.33 228.98 509.78 218.02 516.11 218.02 521.65 228.98 515.33"/><polygon class="cls-6" points="228.98 525.94 228.98 520.39 218.02 526.72 218.02 532.27 228.98 525.94"/><polygon class="cls-4" points="282.61 422.81 282.61 457.22 211.5 498.27 211.5 501.44 285.8 458.54 285.8 420.96 282.61 422.81"/><polygon class="cls-2" points="202.69 229.92 414.2 346.83 211.5 463.86 0 346.94 202.69 229.92"/><polygon class="cls-4" points="538.1 488.89 538.1 504.62 294.2 647.28 207.1 596.93 207.1 581.2 538.1 488.89"/><polygon class="cls-2" points="450.99 438.55 538.1 488.89 294.2 631.55 207.1 581.2 450.99 438.55"/><polygon class="cls-4" points="468.99 509.35 481.79 516.87 347.29 596.06 334.48 588.55 468.99 509.35"/><polygon class="cls-4" points="233.2 572.98 242.52 578.45 231.99 584.62 222.67 579.15 233.2 572.98"/><polygon class="cls-4" points="247.66 564.49 256.98 569.96 246.46 576.13 237.14 570.66 247.66 564.49"/><polygon class="cls-4" points="262.13 556 271.45 561.47 260.93 567.65 251.61 562.18 262.13 556"/><polygon class="cls-4" points="276.6 547.52 285.92 552.99 275.39 559.16 266.07 553.69 276.6 547.52"/><polygon class="cls-4" points="291.06 539.03 300.38 544.5 289.86 550.67 280.54 545.21 291.06 539.03"/><polygon class="cls-4" points="305.53 530.54 314.85 536.01 304.32 542.19 295 536.72 305.53 530.54"/><polygon class="cls-4" points="319.99 522.05 329.31 527.52 318.79 533.7 309.47 528.23 319.99 522.05"/><polygon class="cls-4" points="334.46 513.57 343.78 519.04 333.25 525.21 323.94 519.74 334.46 513.57"/><polygon class="cls-4" points="348.93 505.08 358.25 510.55 347.72 516.73 338.4 511.26 348.93 505.08"/><polygon class="cls-4" points="363.39 496.59 372.71 502.06 362.19 508.24 352.87 502.77 363.39 496.59"/><polygon class="cls-4" points="377.86 488.11 387.18 493.58 376.65 499.75 367.33 494.28 377.86 488.11"/><polygon class="cls-4" points="392.32 479.62 401.64 485.09 391.12 491.27 381.8 485.8 392.32 479.62"/><polygon class="cls-4" points="406.79 471.13 416.11 476.6 405.58 482.78 396.26 477.31 406.79 471.13"/><polygon class="cls-4" points="421.25 462.65 430.57 468.12 420.05 474.29 410.73 468.82 421.25 462.65"/><polygon class="cls-4" points="435.72 454.16 445.04 459.63 434.52 465.81 425.2 460.34 435.72 454.16"/><polygon class="cls-4" points="450.19 445.67 459.51 451.14 448.98 457.32 439.66 451.85 450.19 445.67"/><polygon class="cls-4" points="248.54 582.38 257.86 587.85 247.34 594.02 238.02 588.55 248.54 582.38"/><polygon class="cls-4" points="263.01 573.89 272.33 579.36 261.81 585.54 252.49 580.07 263.01 573.89"/><polygon class="cls-4" points="277.48 565.4 286.8 570.88 276.27 577.05 266.95 571.58 277.48 565.4"/><polygon class="cls-4" points="291.94 556.92 301.26 562.39 290.74 568.56 281.42 563.09 291.94 556.92"/><polygon class="cls-4" points="306.41 548.43 315.73 553.9 305.2 560.08 295.88 554.61 306.41 548.43"/><polygon class="cls-4" points="320.87 539.94 330.19 545.41 319.67 551.59 310.35 546.12 320.87 539.94"/><polygon class="cls-4" points="335.34 531.46 344.66 536.93 334.13 543.1 324.81 537.63 335.34 531.46"/><polygon class="cls-4" points="349.8 522.97 359.12 528.44 348.6 534.62 339.28 529.15 349.8 522.97"/><polygon class="cls-4" points="364.27 514.48 373.59 519.95 363.07 526.13 353.75 520.66 364.27 514.48"/><polygon class="cls-4" points="378.74 506 388.06 511.47 377.53 517.64 368.21 512.17 378.74 506"/><polygon class="cls-4" points="393.2 497.51 402.52 502.98 392 509.16 382.68 503.69 393.2 497.51"/><polygon class="cls-4" points="407.67 489.02 416.99 494.49 406.46 500.67 397.14 495.2 407.67 489.02"/><polygon class="cls-4" points="422.13 480.54 431.45 486.01 420.93 492.18 411.61 486.71 422.13 480.54"/><polygon class="cls-4" points="436.6 472.05 445.92 477.52 435.39 483.69 426.07 478.23 436.6 472.05"/><polygon class="cls-4" points="451.06 463.56 460.38 469.03 449.86 475.21 440.54 469.74 451.06 463.56"/><polygon class="cls-4" points="465.53 455.08 474.85 460.55 464.33 466.72 455.01 461.25 465.53 455.08"/><polygon class="cls-4" points="263.89 591.78 273.21 597.25 262.69 603.43 253.37 597.96 263.89 591.78"/><polygon class="cls-4" points="278.36 583.29 287.68 588.76 277.15 594.94 267.83 589.47 278.36 583.29"/><polygon class="cls-4" points="292.82 574.81 302.14 580.28 291.62 586.45 282.3 580.98 292.82 574.81"/><polygon class="cls-4" points="307.29 566.32 316.61 571.79 306.08 577.97 296.76 572.5 307.29 566.32"/><polygon class="cls-4" points="321.75 557.83 331.07 563.3 320.55 569.48 311.23 564.01 321.75 557.83"/><polygon class="cls-4" points="336.22 549.35 345.54 554.82 335.01 560.99 325.69 555.52 336.22 549.35"/><polygon class="cls-4" points="350.68 540.86 360 546.33 349.48 552.51 340.16 547.04 350.68 540.86"/><polygon class="cls-4" points="365.15 532.37 374.47 537.84 363.95 544.02 354.63 538.55 365.15 532.37"/><polygon class="cls-4" points="379.62 523.89 388.94 529.36 378.41 535.53 369.09 530.06 379.62 523.89"/><polygon class="cls-4" points="394.08 515.4 403.4 520.87 392.88 527.04 383.56 521.58 394.08 515.4"/><polygon class="cls-4" points="408.55 506.91 417.87 512.38 407.34 518.56 398.02 513.09 408.55 506.91"/><polygon class="cls-4" points="423.01 498.43 432.33 503.9 421.81 510.07 412.49 504.6 423.01 498.43"/><polygon class="cls-4" points="437.48 489.94 446.8 495.41 436.27 501.58 426.95 496.12 437.48 489.94"/><polygon class="cls-4" points="451.94 481.45 461.26 486.92 450.74 493.1 441.42 487.63 451.94 481.45"/><polygon class="cls-4" points="466.41 472.96 475.73 478.44 465.21 484.61 455.89 479.14 466.41 472.96"/><polygon class="cls-4" points="480.88 464.48 490.2 469.95 479.67 476.12 470.35 470.65 480.88 464.48"/><polygon class="cls-4" points="279.23 601.18 288.55 606.65 278.03 612.83 268.71 607.36 279.23 601.18"/><polygon class="cls-4" points="293.7 592.7 303.02 598.17 292.5 604.34 283.18 598.87 293.7 592.7"/><polygon class="cls-4" points="308.17 584.21 317.49 589.68 306.96 595.86 297.64 590.39 308.17 584.21"/><polygon class="cls-4" points="322.63 575.72 331.95 581.19 321.43 587.37 312.11 581.9 322.63 575.72"/><polygon class="cls-4" points="337.1 567.24 346.42 572.71 335.89 578.88 326.57 573.41 337.1 567.24"/><polygon class="cls-4" points="351.56 558.75 360.88 564.22 350.36 570.39 341.04 564.92 351.56 558.75"/><polygon class="cls-4" points="366.03 550.26 375.35 555.73 364.82 561.91 355.5 556.44 366.03 550.26"/><polygon class="cls-4" points="380.5 541.78 389.81 547.25 379.29 553.42 369.97 547.95 380.5 541.78"/><polygon class="cls-4" points="394.96 533.29 404.28 538.76 393.76 544.93 384.44 539.47 394.96 533.29"/><polygon class="cls-4" points="409.43 524.8 418.75 530.27 408.22 536.45 398.9 530.98 409.43 524.8"/><polygon class="cls-4" points="423.89 516.32 433.21 521.78 422.69 527.96 413.37 522.49 423.89 516.32"/><polygon class="cls-4" points="438.36 507.83 447.68 513.3 437.15 519.47 427.83 514 438.36 507.83"/><polygon class="cls-4" points="452.82 499.34 462.14 504.81 451.62 510.99 442.3 505.52 452.82 499.34"/><polygon class="cls-4" points="467.29 490.86 476.61 496.32 466.09 502.5 456.77 497.03 467.29 490.86"/><polygon class="cls-4" points="481.76 482.37 491.08 487.84 480.55 494.01 471.23 488.54 481.76 482.37"/><polygon class="cls-4" points="496.22 473.88 505.54 479.35 495.02 485.53 485.7 480.06 496.22 473.88"/><polygon class="cls-4" points="0 346.94 0 435.79 211.5 552.71 211.5 463.86 0 346.94"/><path class="cls-7" d="M297,304.71c46.76,27,47,70.77.55,97.77s-122,27-168.78,0-47-70.77-.55-97.76S250.21,277.72,297,304.71Z"/><path class="cls-2" d="M297,300c46.76,27,47,70.77.55,97.77s-122,27-168.78,0-47-70.76-.55-97.76S250.21,273,297,300Z"/><polygon class="cls-7" points="131.68 159.65 131.68 359 195.05 393.79 195.05 194.44 131.68 159.65"/><polygon class="cls-7" points="104.46 339.74 112.07 365.1 195.05 410.55 195.05 390.02 104.46 339.74"/><polygon class="cls-7" points="41.93 245.25 41.93 305.25 139.31 358.95 139.31 298.95 41.93 245.25"/><polygon class="cls-7" points="15.72 138.28 15.72 232.26 139.31 300.22 139.31 206.24 15.72 138.28"/><polygon class="cls-8" points="195.05 194.44 195.05 393.79 392.61 279.72 392.61 80.38 195.05 194.44"/><polygon class="cls-9" points="195.05 393.79 195.05 410.55 371.61 308.61 392.61 279.72 195.05 393.79"/><polygon class="cls-6" points="216.05 206.57 371.61 116.75 371.61 243.58 216.05 333.39 216.05 206.57"/><polygon class="cls-7" points="362.92 121.78 362.92 238.61 216.05 323.4 216.05 333.39 371.61 243.58 371.61 116.75 362.92 121.78"/><polygon class="cls-2" points="329.24 45.59 392.61 80.38 195.05 194.44 131.68 159.65 329.24 45.59"/><polygon class="cls-2" points="371.61 243.58 362.92 238.61 216.05 323.4 216.05 333.39 371.61 243.58"/><polygon class="cls-7" points="29.65 113.81 15.72 138.28 139.31 206.24 139.31 174.17 29.65 113.81"/><g class="cls-10"><line class="cls-11" x1="38.21" y1="292.15" x2="82.76" y2="316.72"/><line class="cls-11" x1="38.21" y1="286.76" x2="82.76" y2="311.33"/><line class="cls-11" x1="38.21" y1="281.38" x2="82.76" y2="305.94"/><line class="cls-11" x1="38.21" y1="275.99" x2="82.76" y2="300.55"/><line class="cls-11" x1="38.21" y1="270.6" x2="82.76" y2="295.17"/><line class="cls-11" x1="38.21" y1="265.21" x2="82.76" y2="289.78"/><line class="cls-11" x1="38.21" y1="259.83" x2="82.76" y2="284.39"/><line class="cls-11" x1="38.21" y1="254.44" x2="82.76" y2="279.01"/><line class="cls-11" x1="38.21" y1="249.05" x2="82.76" y2="273.62"/><line class="cls-11" x1="38.21" y1="243.67" x2="82.76" y2="268.23"/></g><polygon class="cls-12" points="294.2 647.28 294.2 631.55 538.1 488.89 538.1 504.62 294.2 647.28"/></g></g></svg>