<svg xmlns="http://www.w3.org/2000/svg" xmlns:xlink="http://www.w3.org/1999/xlink" viewBox="0 0 296.51 279.71"><defs><style>.cls-1{isolation:isolate;}.cls-2{fill:#516cb4;}.cls-3{fill:#06b3bb;}.cls-4{fill:#f5f3f7;}.cls-5{fill:#fff;}.cls-6{fill:url(#linear-gradient);}</style><linearGradient id="linear-gradient" x1="146.94" y1="240.09" x2="255.82" y2="309.37" gradientUnits="userSpaceOnUse"><stop offset="0" stop-color="#42145f" stop-opacity="0.25"/><stop offset="1" stop-color="#42145f" stop-opacity="0.75"/></linearGradient></defs><title>dummy</title><g id="Layer_2" data-name="Layer 2"><g id="Layer_4" data-name="Layer 4"><g class="cls-1"><path class="cls-2" d="M197.52.22c-31,2.32-57.54,23.07-66.18,55.71-.32,1.18-.6,2.37-.86,3.56q6,3.36,11.83,7.47A51.35,51.35,0,0,1,187,33.43a58.66,58.66,0,0,1,25.71,4C244.25,49.7,263,85.32,254.6,117c-5.6,21.16-21.89,35.21-41.48,38.55A164.28,164.28,0,0,1,220.05,175c2.49.05,5,0,7.42-.2,31-2.33,57.54-23.07,66.19-55.73C305.59,74,278.94,23.37,234.11,5.92A83.56,83.56,0,0,0,197.52.22"/><path class="cls-2" d="M183.65,211.48c-2.6.19-4,2.5-3.38,6.26.9,5.33,5.56,11.54,10.4,13.88a7.53,7.53,0,0,0,3.76.88c2-.15,3.27-1.52,3.49-3.84a9.51,9.51,0,0,1-2.12-.75c-4.84-2.35-9.5-8.56-10.4-13.88a9.27,9.27,0,0,1-.12-2.42,5.49,5.49,0,0,0-1.63-.13M74.35,71.87c-2.6.2-4,2.5-3.37,6.27.89,5.32,5.56,11.53,10.4,13.88a7.52,7.52,0,0,0,3.75.88c2-.15,3.28-1.53,3.5-3.85a9.51,9.51,0,0,1-2.12-.75C81.67,86,77,79.75,76.11,74.42A8.86,8.86,0,0,1,76,72a5.91,5.91,0,0,0-1.64-.13M87.43,47.09a31.4,31.4,0,0,0-13.65,4c-1.74,1-5.61,3.67-8,5.35a35.86,35.86,0,0,1,16.74-5.31c10.26-.76,22.45,1.91,36,8.45C164.82,82,209.4,141.51,218,192.44c4.05,23.91-.54,41.68-11.35,51.49.6-.45,5.64-4.32,7.25-5.83,10-9.38,13-27.09,9.23-49.37a130.49,130.49,0,0,0-3.11-13.7,164.28,164.28,0,0,0-6.93-19.49C198.54,121.32,171.79,87.59,142.31,67q-5.87-4.09-11.83-7.47c-2.29-1.29-4.58-2.5-6.88-3.61-13.52-6.55-25.91-9.56-36.17-8.79"/><path class="cls-3" d="M194.43,232.5a7.53,7.53,0,0,1-3.76-.88c-4.84-2.34-9.5-8.55-10.4-13.88-.64-3.76.78-6.07,3.38-6.26a5.49,5.49,0,0,1,1.63.13,9.41,9.41,0,0,1,2.13.75c4.84,2.34,9.49,8.55,10.39,13.88a9.27,9.27,0,0,1,.12,2.42c-.22,2.32-1.51,3.69-3.49,3.84M85.13,92.9A7.52,7.52,0,0,1,81.38,92c-4.84-2.35-9.51-8.56-10.4-13.88-.64-3.77.77-6.07,3.37-6.27A5.91,5.91,0,0,1,76,72a9.51,9.51,0,0,1,2.12.75c4.85,2.35,9.5,8.56,10.4,13.88a9.27,9.27,0,0,1,.12,2.42c-.22,2.32-1.51,3.7-3.5,3.85M82.49,51.14a35.86,35.86,0,0,0-16.74,5.31C52,65.24,45.61,84.34,50.16,111.19c2.92,17.24,10,35.47,19.81,52.91,6.66-1.89,12.61-4.25,15.93-7.18,11.95-10.54,23.41-29.89,23.75-30.46a10.16,10.16,0,0,1,8.64-5.49c3.14-.24,6.87.58,11,2.58,14.2,6.88,27.86,25.1,30.5,40.71,1.52,9-.92,15.09-5.95,17.4l0,0s-20.58,9.38-32.44,20.39c-3.37,3.14-6.41,9.1-9,15.81,11.82,10.9,24.5,19.94,37.32,26.14,13.53,6.55,25.72,9.22,36,8.45,8.39-.62,15.49-3.55,21-8.54,10.81-9.81,15.4-27.58,11.35-51.49C209.4,141.51,164.82,82,118.47,59.59c-13.53-6.54-25.72-9.21-36-8.45"/><path class="cls-4" d="M5.21,242.86l.26.6-.26-.6m-.27-.62c.08.2.17.39.25.59-.08-.2-.17-.39-.25-.59m-.26-.61.25.58-.25-.58M4.42,241l.24.57L4.42,241m-.24-.63.22.57-.22-.57m-.25-.65c.07.2.15.39.22.59-.07-.2-.15-.39-.22-.59m-.24-.63c.08.2.15.39.22.59-.07-.2-.14-.4-.22-.59m-.23-.65.21.59-.21-.59m-.22-.65.21.61-.21-.61M3,237.15l.21.61L3,237.15m-.2-.63c.07.2.13.41.2.61-.07-.2-.13-.41-.2-.61m-.2-.65c.06.2.12.4.19.6-.07-.2-.13-.4-.19-.6m-.19-.65.17.59-.17-.59m-.19-.66c0,.2.11.39.17.59l-.17-.59m-.18-.66c0,.2.1.39.16.58-.06-.19-.11-.38-.16-.58m-.17-.66q.06.28.15.57-.09-.28-.15-.57m-.17-.67c.05.19.09.38.14.57-.05-.19-.09-.38-.14-.57m-.16-.68c0,.19.09.38.13.57,0-.19-.09-.38-.13-.57m-.16-.69c.05.2.09.4.14.6-.05-.2-.09-.4-.14-.6m-.14-.68c0,.2.08.4.13.61,0-.21-.09-.41-.13-.61m-.14-.68.12.62-.12-.62M1,229.15l.12.62L1,229.15m-.13-.7.12.66-.12-.66m-.06-.38.06.38-.06-.38m-.06-.39c0,.12,0,.23.05.34,0-.11,0-.22-.05-.34M118.29,121a10.16,10.16,0,0,0-8.64,5.49c-.34.57-11.8,19.92-23.75,30.46-3.32,2.93-9.27,5.29-15.93,7.18a244,244,0,0,1-27.15,5.49C14.67,172.08-4,197.84.73,227.66a57.39,57.39,0,0,1-.67-11.32,38.42,38.42,0,0,1,12-2.89c23.28-1.74,45.59,16.78,49.82,41.37a44.05,44.05,0,0,1-2.68,24.88c-22.63.25-44-14.7-53.76-36.23,10.2,22.55,33.17,37.88,57,36.1,19.92-1.49,35.18-14.6,41-32.59l0,0c0-.14.08-.29.13-.45.3-1,.57-1.95.82-3a264.66,264.66,0,0,1,8-25.64c2.63-6.71,5.67-12.67,9-15.81,11.86-11,32.44-20.39,32.44-20.39l0,0c5-2.31,7.47-8.45,5.95-17.4-2.64-15.61-16.3-33.83-30.5-40.71-4.15-2-7.88-2.82-11-2.58"/><path class="cls-4" d="M11.63,254.14l-.63-.89Z"/><path class="cls-4" d="M13,256c-.23-.29-.45-.58-.67-.88C12.52,255.37,12.74,255.66,13,256Z"/><path class="cls-4" d="M11,253.25c-.22-.32-.44-.65-.65-1C10.56,252.6,10.78,252.93,11,253.25Z"/><path class="cls-4" d="M10.35,252.27l-.58-.88C10,251.69,10.15,252,10.35,252.27Z"/><path class="cls-4" d="M8,248.33l-.46-.81Z"/><path class="cls-4" d="M8.6,249.48c-.22-.38-.44-.76-.65-1.15C8.16,248.72,8.38,249.1,8.6,249.48Z"/><path class="cls-4" d="M9.12,250.33c-.17-.28-.35-.56-.52-.85C8.77,249.77,9,250.05,9.12,250.33Z"/><path class="cls-4" d="M9.77,251.39c-.22-.35-.44-.7-.65-1.06C9.33,250.69,9.55,251,9.77,251.39Z"/><path class="cls-4" d="M13.65,256.83c-.23-.29-.46-.58-.68-.88C13.19,256.25,13.42,256.54,13.65,256.83Z"/><path class="cls-4" d="M19.56,263.3l-.66-.64Z"/><path class="cls-4" d="M18.9,262.66l-.89-.89Z"/><path class="cls-4" d="M.06,216.34a38.42,38.42,0,0,1,12-2.89,42.66,42.66,0,0,1,18.54,2.84,45,45,0,0,0-29.36-9.58,56.14,56.14,0,0,0-.55,20.95A57.39,57.39,0,0,1,.06,216.34Z"/><path class="cls-4" d="M18,261.77c-.23-.23-.45-.47-.67-.7C17.56,261.3,17.78,261.54,18,261.77Z"/><path class="cls-4" d="M14.37,257.72c-.24-.3-.49-.59-.72-.89Z"/><path class="cls-4" d="M15.05,258.53l-.68-.81Z"/><path class="cls-4" d="M15.83,259.42l-.78-.89Z"/><path class="cls-4" d="M17.34,261.07c-.28-.29-.56-.59-.83-.89C16.78,260.48,17.06,260.78,17.34,261.07Z"/><path class="cls-4" d="M16.51,260.18c-.23-.25-.46-.5-.68-.76C16.05,259.68,16.28,259.93,16.51,260.18Z"/><path class="cls-4" d="M12.3,255.07l-.67-.93Z"/><path class="cls-4" d="M31.21,272.07,31.1,272Z"/><path class="cls-4" d="M31.1,272c-.52-.3-1-.62-1.56-.94C30.06,271.39,30.58,271.71,31.1,272Z"/><path class="cls-4" d="M29.54,271.07l-.3-.19Z"/><path class="cls-4" d="M25.62,268.4l.52.37Z"/><polygon class="cls-4" points="26.14 268.77 26.14 268.77 26.14 268.77 26.14 268.77"/><path class="cls-4" d="M26.17,268.79c.41.3.82.6,1.24.88-.42-.28-.83-.58-1.24-.88Z"/><path class="cls-4" d="M29.24,270.88c-.48-.3-.94-.61-1.4-.92C28.3,270.27,28.76,270.58,29.24,270.88Z"/><path class="cls-4" d="M27.84,270l-.43-.29Z"/><path class="cls-4" d="M21.16,264.77c.33.3.67.59,1,.88C21.83,265.36,21.49,265.07,21.16,264.77Z"/><path class="cls-4" d="M19.56,263.3l1,.89Z"/><path class="cls-4" d="M20.51,264.19l.65.58Z"/><path class="cls-4" d="M6.45,245.52c-.33-.68-.66-1.36-1-2.05C5.79,244.16,6.12,244.84,6.45,245.52Z"/><path class="cls-4" d="M6.81,246.2l-.36-.68Z"/><path class="cls-4" d="M24.45,267.51c.39.3.77.6,1.17.89C25.22,268.11,24.84,267.81,24.45,267.51Z"/><path class="cls-4" d="M7.49,247.52c-.23-.43-.46-.88-.68-1.32C7,246.64,7.26,247.09,7.49,247.52Z"/><path class="cls-4" d="M22.79,266.17c.35.3.72.6,1.08.89C23.51,266.77,23.14,266.47,22.79,266.17Z"/><path class="cls-4" d="M23.87,267.06l.58.45Z"/><path class="cls-4" d="M22.17,265.65c.2.18.41.35.62.52C22.58,266,22.37,265.83,22.17,265.65Z"/><path class="cls-5" d="M12.1,213.45a38.42,38.42,0,0,0-12,2.89,57.39,57.39,0,0,0,.67,11.32v0c0,.12,0,.23.05.34v0l.06.38.12.66v0l.12.62v.07l.12.62,0,.06c0,.2.08.4.13.61v.07c.05.2.09.4.14.6l0,.09c0,.19.09.38.13.57l0,.11c.05.19.09.38.14.57l0,.1q.06.28.15.57l0,.09c0,.2.1.39.16.58l0,.08.17.59,0,.07.17.59,0,.06c.06.2.12.4.19.6v.05c.07.2.13.41.2.61v0l.21.61v0l.21.61v0l.21.59,0,.06c.08.19.15.39.22.59l0,0c.07.2.15.39.22.59l0,.06.22.57,0,.06.24.57,0,.06.25.58v0c.08.2.17.39.25.59l0,0,.26.6h0C15.22,265,36.61,280,59.24,279.7a44.05,44.05,0,0,0,2.68-24.88c-4.23-24.59-26.54-43.11-49.82-41.37"/></g><path class="cls-6" d="M159.81,164.26c-2.64-15.61-16.3-33.83-30.5-40.71a31.59,31.59,0,0,0-3.83-1.54c11,8.66,20.29,23,22.43,35.56,1.52,9-.93,15.09-6,17.41h0s-20.57,9.38-32.43,20.39c-3.37,3.14-6.42,9.1-9.05,15.81a260.85,260.85,0,0,0-8,25.65c-.25,1-.52,2-.83,3l-.12.44,0,0a46.32,46.32,0,0,1-29.55,30.33,41.44,41.44,0,0,1-2.69,9.08,54.63,54.63,0,0,1-28-7.63,54.09,54.09,0,0,0,31.22,7.5c19.92-1.49,35.18-14.6,41-32.59l0,0c0-.14.08-.29.13-.45.3-1,.57-1.95.82-3a264.66,264.66,0,0,1,8-25.64c2.63-6.71,5.67-12.67,9-15.81,11.86-11,32.44-20.39,32.44-20.39l0,0C158.89,179.35,161.33,173.21,159.81,164.26Z"/></g></g></svg>