<svg id="Layer_1" data-name="Layer 1" xmlns="http://www.w3.org/2000/svg" xmlns:xlink="http://www.w3.org/1999/xlink" width="242.24" height="366.63" viewBox="0 0 242.24 366.63">
  <defs>
    <linearGradient id="linear-gradient" x1="44.64" y1="155.77" x2="799.48" y2="-6.08" gradientTransform="matrix(0.5, 0.86, 0.86, -0.5, -50.72, 183.36)" gradientUnits="userSpaceOnUse">
      <stop offset="0" stop-color="#fff" stop-opacity="0.25"/>
      <stop offset="1" stop-color="#42145f" stop-opacity="0.75"/>
    </linearGradient>
  </defs>
  <title>pocket_watch</title>
  <g id="Layer_4" data-name="Layer 4">
    <path d="M214.37,108.06,180.29,87.44h0A60.4,60.4,0,0,0,150.48,80c-15.39,0-31.75,4.94-48.61,14.68-27.46,15.85-53.13,42.85-72.29,76S-.09,239.61,0,271.18C.09,303.72,11.7,328.45,31.26,341l30.28,18L142.3,226.4l-29.8,109c27.46-15.85,53.13-42.86,72.29-76S214.46,190.54,214.37,159c0-14.89-2.5-28.13-7-39.32Z" transform="translate(0 0)" style="fill: #06b3bb"/>
    <path d="M180.29,87.44h0A60.4,60.4,0,0,0,150.48,80c-15.39,0-31.75,4.94-48.61,14.68C81.69,106.36,62.47,124,46.1,145.77l28,16.46,133.9-41c-.21-.53-.39-1.09-.6-1.61l7-11.52Z" transform="translate(0 0)" style="fill: #38c2c9"/>
    <path d="M91.77,366.63c-38.68,0-63.76-31-63.9-78.87-.09-31.56,10.42-67.23,29.58-100.42s44.84-60.19,72.29-76C146.6,101.6,163,96.66,178.35,96.66c38.67,0,63.75,31,63.89,78.87.09,31.57-10.42,67.23-29.58,100.43s-44.83,60.19-72.29,76C123.51,361.69,107.16,366.63,91.77,366.63Z" transform="translate(0 0)" style="fill: #516cb4"/>
    <ellipse cx="135.06" cy="231.62" rx="136.99" ry="79.35" transform="translate(-133.06 232.03) rotate(-59.84)" style="fill: #fff"/>
    <ellipse cx="135.06" cy="231.62" rx="136.99" ry="79.35" transform="translate(-133.06 232.03) rotate(-59.84)" style="fill: url(#linear-gradient)"/>
    <path d="M194,108.9c21.1,8.33,34.55,31.2,34.64,65.37.18,61.68-43.19,136.79-96.86,167.78-22.3,12.88-42.86,16.1-59.3,11.06,17,6.71,38.92,4,62.85-9.81,53.68-31,97-106.1,96.87-167.78C232.14,139.46,217.17,116,194,108.9Z" transform="translate(0 0)" style="fill: #06b3bb"/>
    <polygon points="136.61 315.36 136.66 332.8 134.04 334.31 133.99 316.87 136.61 315.36" style="fill: #06b3bb"/>
    <g>
      <polygon points="173.16 282.16 180.79 292.89 178.53 295.7 170.9 284.97 173.16 282.16" style="fill: #06b3bb"/>
      <polygon points="178.03 117.65 180.29 117.85 172.74 137.34 170.48 137.14 178.03 117.65" style="fill: #06b3bb"/>
      <polygon points="136.08 128.94 136.13 146.39 133.51 147.9 133.46 130.45 136.08 128.94" style="fill: #06b3bb"/>
      <polygon points="223.76 178.9 223.77 181.92 208.59 190.68 208.58 187.67 223.76 178.9" style="fill: #06b3bb"/>
      <polygon points="97.37 325.92 99.64 326.11 92.09 345.6 89.82 345.42 97.37 325.92" style="fill: #06b3bb"/>
      <polygon points="70.85 309.7 72.17 311.55 59.04 327.87 57.72 326.02 70.85 309.7" style="fill: #06b3bb"/>
      <polygon points="61.53 272.57 61.54 275.58 46.36 284.35 46.35 281.33 61.53 272.57" style="fill: #06b3bb"/>
      <polygon points="58.74 223.33 71.92 224.47 70.62 227.83 57.44 226.7 58.74 223.33" style="fill: #06b3bb"/>
      <polygon points="91.59 167.55 99.22 178.28 96.96 181.09 89.32 170.37 91.59 167.55" style="fill: #06b3bb"/>
    </g>
    <polygon points="211.08 135.38 212.39 137.24 199.27 153.55 197.95 151.7 211.08 135.38" style="fill: #06b3bb"/>
    <polygon points="199.5 235.42 212.67 236.56 211.38 239.92 198.2 238.79 199.5 235.42" style="fill: #06b3bb"/>
    <line id="minuteHand" x1="134.8" y1="231.63" x2="175.39" y2="259.23" style="fill: none;stroke: #42145f;stroke-miterlimit: 10;stroke-width: 2px"/>
    <path d="M128.36,236.52a3.66,3.66,0,0,1-1.56-3.38,11.52,11.52,0,0,1,5.25-9.08,3.69,3.69,0,0,1,3.72-.38l3,1.52-7.13,13Z" transform="translate(0 0)" style="fill: #06b3bb"/>
    <line id="hourHand" x1="134.92" y1="224.08" x2="134.92" y2="159.24" style="fill: none;stroke: #42145f;stroke-miterlimit: 10;stroke-width: 2px"/>
    <ellipse cx="135.06" cy="231.61" rx="7.42" ry="4.3" transform="translate(-133.05 232.02) rotate(-59.84)" style="fill: #516cb4"/>
    <path d="M166.15,27.69c.07,23-16.1,51-36.12,62.55" transform="translate(0 0)" style="fill: none;stroke: #fff;stroke-miterlimit: 10;stroke-width: 4px"/>
    <path d="M144.33,94c0,2.36-1.52,4.72-4.62,6.52-6.2,3.61-16.29,3.61-22.52,0-3.12-1.8-4.69-4.16-4.7-6.53V78.13h31.84Z" transform="translate(0 0)" style="fill: #516cb4"/>
    <path d="M129.92,78.13H112.49V94c0,2.37,1.58,4.73,4.7,6.53a23.73,23.73,0,0,0,12.73,2.66Z" transform="translate(0 0)" style="fill: #06b3bb"/>
    <path d="M139.64,71.61c6.23,3.6,6.26,9.44.07,13s-16.29,3.61-22.52,0-6.27-9.45-.07-13S133.4,68,139.64,71.61Z" transform="translate(0 0)" style="fill: #38c2c9"/>
    <path d="M140.23,75.67c0,1.75-1.14,3.51-3.43,4.84-4.6,2.67-12.09,2.67-16.71,0-2.32-1.33-3.48-3.08-3.49-4.84V63.9h23.63Z" transform="translate(0 0)" style="fill: #516cb4"/>
    <path d="M129.53,63.9H116.6V75.67c0,1.76,1.17,3.51,3.49,4.84a17.6,17.6,0,0,0,9.44,2Z" transform="translate(0 0)" style="fill: #06b3bb"/>
    <path d="M136.74,59.07c4.63,2.67,4.65,7,.06,9.67s-12.09,2.68-16.71,0-4.66-7-.06-9.69S132.11,56.39,136.74,59.07Z" transform="translate(0 0)" style="fill: #38c2c9"/>
    <circle cx="128.41" cy="50.76" r="15" style="fill: #06b3bb"/>
    <path d="M119.78,94.47c-15,3.59-26-6-26.1-24.94-.07-23,16.11-51,36.12-62.56s36.29-2.28,36.35,20.72" transform="translate(0 0)" style="fill: none;stroke: #fff;stroke-miterlimit: 10;stroke-width: 4px"/>
  </g>
</svg>
