<svg xmlns="http://www.w3.org/2000/svg" xmlns:xlink="http://www.w3.org/1999/xlink" viewBox="0 0 549.04 390.93"><defs><style>.cls-1{fill:#f5f3f7;}.cls-2{fill:#fff;}.cls-3{fill:#06b3bb;}.cls-4{fill:#516cb4;}.cls-5{fill:url(#linear-gradient);}.cls-6{fill:url(#linear-gradient-2);}.cls-7{fill:url(#linear-gradient-3);}.cls-8{fill:#2bbec5;}.cls-9{fill:url(#linear-gradient-4);}.cls-10{fill:url(#linear-gradient-5);}</style><linearGradient id="linear-gradient" x1="170.83" y1="222.79" x2="353.56" y2="299.81" gradientUnits="userSpaceOnUse"><stop offset="0" stop-color="#f5f3f7"/><stop offset="1" stop-color="#714f87"/></linearGradient><linearGradient id="linear-gradient-2" x1="169.28" y1="183.99" x2="353.69" y2="256.9" xlink:href="#linear-gradient"/><linearGradient id="linear-gradient-3" x1="158.01" y1="184.51" x2="339.44" y2="184.51" xlink:href="#linear-gradient"/><linearGradient id="linear-gradient-4" x1="192.32" y1="104.89" x2="315.8" y2="180" xlink:href="#linear-gradient"/><linearGradient id="linear-gradient-5" x1="596.77" y1="273.1" x2="715.57" y2="340.84" gradientTransform="matrix(-1, 0, 0, 1, 928.17, 0)" xlink:href="#linear-gradient"/></defs><title>books</title><g id="Layer_2" data-name="Layer 2"><g id="Layer_4" data-name="Layer 4"><polygon class="cls-1" points="354.17 203 155.88 318.23 7.66 232.66 7.66 227.99 205.95 117.42 354.17 203"/><polygon class="cls-2" points="354.17 198.32 155.88 313.56 7.66 227.99 205.95 112.75 354.17 198.32"/><polygon class="cls-3" points="343.38 197.62 155.88 307.18 12.93 224.6 200.43 115.03 343.38 168.88 343.38 197.62"/><polygon class="cls-4" points="343.38 168.88 200.43 115.03 155.88 141.06 155.88 307.18 343.38 197.62 343.38 168.88"/><polygon class="cls-5" points="155.88 313.56 155.88 318.23 354.17 203 354.17 198.32 155.88 313.56"/><path class="cls-1" d="M7.66,192.27,19.4,199.1l-5.87,25.47L7.66,228s-7.15-7-6.19-16.88S7.66,192.27,7.66,192.27Z"/><polygon class="cls-1" points="354.17 162.61 155.88 277.85 7.66 192.27 7.66 187.6 205.95 77.04 354.17 162.61"/><polygon class="cls-2" points="354.17 157.94 155.88 273.18 7.66 187.6 205.95 72.36 354.17 157.94"/><polygon class="cls-6" points="155.88 273.18 155.88 277.85 354.17 162.61 354.17 157.94 155.88 273.18"/><path class="cls-1" d="M7.66,228a33,33,0,0,1-5.05-18.51c.12-5.1,1.83-10.8,5.05-17.21V187.6S0,197.34,0,210.13s7.66,22.53,7.66,22.53Z"/><path class="cls-3" d="M13.09,195.41A35.12,35.12,0,0,0,13,224.57l4.4,2.6,20.76-17.3Z"/><polygon class="cls-2" points="339.44 150.88 158 256.32 22.39 178.02 203.82 72.58 339.44 150.88"/><polygon class="cls-1" points="158 256.32 22.39 178.02 22.39 181.83 158 260.13 339.44 154.69 336.15 152.79 158 256.32"/><polygon class="cls-1" points="158 214.3 22.39 136 22.39 139.82 158 218.12 339.44 112.68 336.15 110.78 158 214.3"/><polygon class="cls-2" points="339.44 108.9 158 214.34 22.39 136.04 203.82 30.6 339.44 108.9"/><polygon class="cls-7" points="339.44 108.9 339.44 154.69 158 260.13 158 214.34 339.44 108.9"/><polygon class="cls-3" points="28.98 143.63 28.98 177.52 158 251.29 158 218.12 28.98 143.63"/><polygon class="cls-1" points="158 260.13 158 214.34 154.64 212.39 154.64 258 158 260.13"/><polygon class="cls-8" points="516.95 273.31 321.63 386.82 175.63 302.53 370.95 189.02 516.95 273.31"/><polygon class="cls-3" points="321.63 386.82 175.63 302.53 175.63 306.64 321.63 390.93 516.95 277.42 513.4 275.38 321.63 386.82"/><polygon class="cls-3" points="321.63 356.19 175.63 271.9 175.63 276.01 321.63 360.3 516.95 246.79 513.4 244.75 321.63 356.19"/><polygon class="cls-8" points="516.95 242.72 321.63 356.23 175.63 271.94 370.95 158.43 516.95 242.72"/><polygon class="cls-4" points="516.95 242.72 516.95 277.42 321.63 390.93 321.63 356.23 516.95 242.72"/><polygon class="cls-1" points="182.73 280.11 182.73 302 321.63 381.41 321.63 360.3 182.73 280.11"/><polygon class="cls-3" points="321.63 390.93 321.63 356.23 318 354.14 318 388.64 321.63 390.93"/><polygon class="cls-3" points="315.82 106.67 160.49 197.46 53.67 135.84 53.67 131.17 208.99 45.06 315.82 106.67"/><polygon class="cls-8" points="315.82 102 160.49 192.78 53.67 131.17 208.99 40.38 315.82 102"/><polygon class="cls-1" points="305.02 101.29 160.49 186.41 58.94 127.78 203.47 42.67 305.02 72.56 305.02 101.29"/><polygon class="cls-9" points="305.02 72.56 203.47 42.67 160.49 157.07 160.49 186.41 305.02 101.29 305.02 72.56"/><polygon class="cls-4" points="160.49 192.78 160.49 197.46 315.82 106.67 315.82 102 160.49 192.78"/><path class="cls-4" d="M53.67,95.46l11.74,6.82-5.87,25.48-5.87,3.41s-7.15-7-6.19-16.88S53.67,95.46,53.67,95.46Z"/><polygon class="cls-3" points="315.82 66.29 160.49 157.07 53.67 95.45 53.67 90.78 208.99 4.67 315.82 66.29"/><polygon class="cls-8" points="315.82 61.62 160.49 152.4 53.67 90.78 208.99 0 315.82 61.62"/><polygon class="cls-4" points="160.49 152.4 160.49 157.07 315.82 66.29 315.82 61.62 160.49 152.4"/><path class="cls-3" d="M53.67,131.17a33,33,0,0,1-5.05-18.51c.12-5.1,1.83-10.8,5.05-17.2V90.78S46,100.52,46,113.31s7.66,22.53,7.66,22.53Z"/><path class="cls-1" d="M59.1,98.59A35.24,35.24,0,0,0,59,127.76l4.41,2.59,20.76-17.3Z"/><polygon class="cls-3" points="208.07 271.41 348 352.7 450.05 293.78 312.66 213.94 312.66 211.02 452.59 292.31 549.04 236.38 549.04 239.32 452.59 295.25 452.59 295.25 348 355.64 208.07 274.32 208.07 271.41"/><polygon class="cls-8" points="312.66 211.02 312.66 211.02 409.11 155.08 549.04 236.4 452.59 292.34 452.59 292.34 348 352.72 208.07 271.41 312.66 211.02"/><path class="cls-2" d="M211.42,255.2s57.56-33,76.78-43.72c13.33-7.4,20.55-4.54,26.07-1.39,29.37,16.76,132,77.28,132,77.28l-95,51.76Z"/><path class="cls-2" d="M314.27,210.09l.5-.36a26.52,26.52,0,0,1,13.3-20.48c18.26-10.35,67.39-38.59,80.59-46.24l135.73,78.7c-13.21,7.65-62.33,35.89-80.59,46.25A26.54,26.54,0,0,0,450.35,291h0l-134-79.71-1.73,1h0c0-.66,0-1.32.08-2Z"/><path class="cls-1" d="M544.39,236.7v-15c-13.21,7.65-62.33,35.89-80.59,46.25A26.54,26.54,0,0,0,450.35,291h0Z"/><path class="cls-1" d="M450.36,291s-6.39-11.41-25.4-.39-76.78,43.72-76.78,43.72L211.42,255.22v15.45l136.76,79.16Z"/><polygon class="cls-10" points="348.18 349.83 348.18 334.37 211.42 255.22 211.42 270.67 348.18 349.83"/><polygon class="cls-4" points="348 355.64 348 352.72 208.07 271.41 208.07 274.32 348 355.64"/></g></g></svg>