<svg id="Layer_1" data-name="Layer 1" xmlns="http://www.w3.org/2000/svg" xmlns:xlink="http://www.w3.org/1999/xlink" width="273.55" height="406.61" viewBox="0 0 273.55 406.61">
  <defs>
    <linearGradient id="linear-gradient" x1="125.83" y1="262.51" x2="274.19" y2="-19.09" gradientTransform="matrix(1, 0, 0, -1, 0, 408)" gradientUnits="userSpaceOnUse">
      <stop offset="0" stop-color="#f5f3f7"/>
      <stop offset="1" stop-color="#714f87"/>
    </linearGradient>
    <linearGradient id="linear-gradient-2" x1="104.85" y1="200.27" x2="664.47" y2="80.28" gradientTransform="matrix(0.5, 0.86, 0.86, -0.5, -75.21, 166.89)" gradientUnits="userSpaceOnUse">
      <stop offset="0" stop-color="#fff" stop-opacity="0.25"/>
      <stop offset="1" stop-color="#42145f" stop-opacity="0.75"/>
    </linearGradient>
  </defs>
  <title>clock</title>
  <g id="Layer_4" data-name="Layer 4">
    <polygon points="216.58 0 272.84 32.71 56.27 157.75 0 125.04 216.58 0" style="fill: #fff"/>
    <polygon points="272.84 32.71 273.55 281.57 56.97 406.61 56.27 157.75 272.84 32.71" style="fill: url(#linear-gradient)"/>
    <path d="M139.78,322.2c-28.67,0-47.27-22.95-47.37-58.47-.06-23.4,7.73-49.84,21.94-74.45s33.23-44.63,53.59-56.38c12.5-7.22,24.62-10.88,36-10.88,28.68,0,47.27,23,47.37,58.47.07,23.41-7.72,49.85-21.93,74.46s-33.23,44.62-53.59,56.37C163.32,318.54,151.2,322.2,139.78,322.2Z" style="fill: #516cb4"/>
    <ellipse cx="171.88" cy="222.1" rx="101.56" ry="58.83" transform="translate(-106.51 259.12) rotate(-59.84)" style="fill: #fff"/>
    <ellipse cx="171.88" cy="222.1" rx="101.56" ry="58.83" transform="translate(-106.51 259.12) rotate(-59.84)" style="fill: url(#linear-gradient-2)"/>
    <path d="M215.61,131.12c15.64,6.18,25.61,23.14,25.68,48.47.13,45.73-32,101.42-71.81,124.39-16.53,9.54-31.78,11.94-44,8.2,12.59,5,28.85,3,46.59-7.28,39.8-23,72-78.66,71.82-124.39C243.85,153.78,232.76,136.38,215.61,131.12Z" style="fill: #06b3bb"/>
    <polygon points="173.03 284.19 173.06 297.12 171.13 298.24 171.09 285.31 173.03 284.19" style="fill: #06b3bb"/>
    <g>
      <polygon points="200.12 259.58 205.78 267.54 204.11 269.61 198.45 261.66 200.12 259.58" style="fill: #06b3bb"/>
      <polygon points="203.74 137.61 205.42 137.76 199.82 152.21 198.14 152.06 203.74 137.61" style="fill: #06b3bb"/>
      <polygon points="172.64 145.99 172.67 158.92 170.73 160.04 170.7 147.1 172.64 145.99" style="fill: #06b3bb"/>
      <polygon points="237.64 183.02 237.65 185.26 226.39 191.76 226.38 189.53 237.64 183.02" style="fill: #06b3bb"/>
      <polygon points="143.94 292.02 145.62 292.16 140.02 306.61 138.34 306.47 143.94 292.02" style="fill: #06b3bb"/>
      <polygon points="124.28 280 125.25 281.37 115.52 293.46 114.54 292.09 124.28 280" style="fill: #06b3bb"/>
      <polygon points="117.37 252.47 117.38 254.7 106.12 261.2 106.11 258.96 117.37 252.47" style="fill: #06b3bb"/>
      <polygon points="115.3 215.96 125.07 216.8 124.1 219.3 114.33 218.46 115.3 215.96" style="fill: #06b3bb"/>
      <polygon points="139.65 174.61 145.31 182.56 143.63 184.65 137.97 176.7 139.65 174.61" style="fill: #06b3bb"/>
    </g>
    <polygon points="228.24 150.76 229.21 152.13 219.49 164.23 218.51 162.86 228.24 150.76" style="fill: #06b3bb"/>
    <polygon points="219.66 224.93 229.42 225.77 228.46 228.26 218.69 227.42 219.66 224.93" style="fill: #06b3bb"/>
    <line id="hourHand" x1="171.68" y1="222.11" x2="201.78" y2="242.58" style="fill: none;stroke: #42145f;stroke-miterlimit: 10;stroke-width: 2px"/>
    <path d="M166.91,225.74a2.7,2.7,0,0,1-1.15-2.51,8.54,8.54,0,0,1,3.89-6.73,2.76,2.76,0,0,1,2.76-.28l2.21,1.13L169.33,227Z" style="fill: #06b3bb"/>
    <line id="minuteHand" x1="171.78" y1="216.52" x2="171.78" y2="168.44" style="fill: none;stroke: #42145f;stroke-miterlimit: 10;stroke-width: 2px"/>
    <ellipse cx="171.88" cy="222.1" rx="5.5" ry="3.18" transform="translate(-106.51 259.12) rotate(-59.84)" style="fill: #516cb4"/>
    <polygon points="56.97 406.61 0.71 373.9 0 125.04 56.27 157.75 56.97 406.61" style="fill: #f5f3f7"/>
    <path d="M86.39,120.4h0L81,109.79,64.5,111,48,109.79l-5.41,10.59h0c-2.32,4.52-.39,9.63,5.81,13.21,9,5.17,23.45,5.18,32.35,0C86.88,130,88.75,124.92,86.39,120.4Z" style="fill: #06b3bb"/>
    <path d="M86.43,120.38,81,109.79,64.5,111v26.51a33,33,0,0,0,16.23-3.87c6.15-3.58,8-8.68,5.66-13.2Z" style="fill: #516cb4"/>
    <path d="M76.62,105.55c6.73,3.89,6.77,10.2.08,14.09s-17.58,3.88-24.31,0-6.78-10.19-.09-14.08S69.87,101.66,76.62,105.55Z" style="fill: #2bbec5"/>
    <path d="M230,38.08h0l-5.41-10.59-16.52,1.18L191.6,27.46l-5.41,10.59h0c-2.32,4.53-.39,9.63,5.81,13.21,9,5.17,23.45,5.18,32.35,0C230.5,47.7,232.37,42.6,230,38.08Z" style="fill: #06b3bb"/>
    <path d="M230.05,38.05l-5.41-10.59-16.52,1.18v26.5a32.8,32.8,0,0,0,16.23-3.87c6.15-3.57,8-8.67,5.66-13.19Z" style="fill: #516cb4"/>
    <path d="M220.24,23.23c6.73,3.88,6.77,10.19.07,14.08s-17.57,3.88-24.3,0-6.78-10.2-.09-14.08S213.49,19.33,220.24,23.23Z" style="fill: #2bbec5"/>
  </g>
</svg>
