<svg xmlns="http://www.w3.org/2000/svg" viewBox="0 0 408.43 457.5"><defs><style>.cls-1{fill:none;stroke:#516cb4;stroke-miterlimit:10;stroke-width:3px;}.cls-2{fill:#06b3bb;}.cls-3{fill:#2bbec5;}.cls-4{fill:#f5f3f7;}.cls-5{fill:#fff;}</style></defs><title>parasol</title><g id="Layer_2" data-name="Layer 2"><g id="Layer_4" data-name="Layer 4"><line class="cls-1" x1="204.21" y1="26.55" x2="204.21" y2="457.5"/><path class="cls-2" d="M123.83,239.12H284.6a0,0,0,0,1,0,0v11.75a8.39,8.39,0,0,1-8.39,8.39h-144a8.39,8.39,0,0,1-8.39-8.39V239.12a0,0,0,0,1,0,0Z"/><path class="cls-3" d="M408.43,165.83v9.89a18,18,0,0,1-8.82,15.46L296.43,252.25a7.84,7.84,0,0,1-11.83-6.75v-6.38Z"/><path class="cls-3" d="M0,165.83v9.89a18,18,0,0,0,8.82,15.46L112,252.25a7.84,7.84,0,0,0,11.83-6.75v-6.38Z"/><polygon class="cls-4" points="0 165.83 204.21 26.55 123.83 239.12 0 165.83"/><polygon class="cls-5" points="0 70.24 0 165.83 204.21 26.55 0 70.24"/><polygon class="cls-4" points="113.69 0 204.21 26.55 0 70.24 113.69 0"/><polygon class="cls-5" points="204.22 26.55 123.83 239.12 204.22 239.12 284.6 239.12 204.22 26.55"/><polygon class="cls-4" points="408.43 165.83 204.21 26.55 284.6 239.12 408.43 165.83"/><polygon class="cls-5" points="408.43 70.24 408.43 165.83 204.21 26.55 408.43 70.24"/><polygon class="cls-4" points="294.74 0 204.21 26.55 408.43 70.24 294.74 0"/><polygon class="cls-5" points="204.22 0 113.69 0 204.22 26.55 294.74 0 204.22 0"/><line class="cls-1" x1="204.21" y1="26.55" x2="204.21" y2="7.63"/></g></g></svg>