<svg xmlns="http://www.w3.org/2000/svg" viewBox="0 0 98 141.62"><defs><style>.cls-1{fill:#00b0bc;}.cls-2{fill:#fff;}.cls-3{fill:#4a6cb8;}.cls-4{fill:#26bcc6;}.cls-5{fill:#490b63;}.cls-6{fill:#42145f;}</style></defs><title>14_lego</title><g id="Layer_2" data-name="Layer 2"><g id="NatWest-longform_3-digitisation-desktop"><polygon class="cls-1" points="32.63 111.05 32.63 141.62 0 122.78 0 92.21 32.63 111.05"/><polygon class="cls-2" points="98 73.03 32.63 111.05 0 92.21 65.37 54.19 98 73.03"/><polygon class="cls-3" points="32.63 141.62 32.63 111.05 98 73.03 98 103.6 32.63 141.62"/><path class="cls-4" d="M82.7,91c2.67-1.54,4.84-.31,4.84,2.76a10.59,10.59,0,0,1-4.81,8.34c-2.67,1.54-4.84.3-4.85-2.76A10.63,10.63,0,0,1,82.7,91Z"/><path class="cls-1" d="M82.7,91a9.79,9.79,0,0,0-3.36,3.51l6.83,3.94a9.69,9.69,0,0,0,1.37-4.69C87.54,90.68,85.37,89.45,82.7,91Z"/><path class="cls-4" d="M65.3,101.78c2.67-1.54,4.84-.31,4.85,2.76a10.63,10.63,0,0,1-4.82,8.33c-2.67,1.54-4.84.31-4.84-2.76A10.59,10.59,0,0,1,65.3,101.78Z"/><path class="cls-1" d="M65.3,101.78a9.79,9.79,0,0,0-3.36,3.51l6.83,3.94a9.88,9.88,0,0,0,1.38-4.69C70.14,101.47,68,100.24,65.3,101.78Z"/><path class="cls-4" d="M47.9,112.56c2.67-1.54,4.84-.3,4.85,2.76a10.6,10.6,0,0,1-4.82,8.34c-2.66,1.54-4.83.31-4.84-2.76A10.61,10.61,0,0,1,47.9,112.56Z"/><path class="cls-1" d="M47.9,112.56a9.82,9.82,0,0,0-3.36,3.52L51.37,120a9.88,9.88,0,0,0,1.38-4.7C52.74,112.26,50.57,111,47.9,112.56Z"/><polygon class="cls-3" points="32.63 83.97 32.63 111.09 0 92.25 0 65.13 32.63 83.97"/><polygon class="cls-2" points="98 45.94 32.63 83.97 0 65.13 65.37 27.1 98 45.94"/><polygon class="cls-5" points="32.63 111.09 32.63 83.97 98 45.94 98 73.07 32.63 111.09"/><path class="cls-6" d="M74.91,40.49c3.06,1.76,3.08,4.63,0,6.41a12.18,12.18,0,0,1-11.06,0c-3.07-1.77-3.09-4.64,0-6.41A12.2,12.2,0,0,1,74.91,40.49Z"/><path class="cls-3" d="M74.91,40.49a11.67,11.67,0,0,0-6.6-1.28v9a11.73,11.73,0,0,0,6.63-1.27C78,45.12,78,42.25,74.91,40.49Z"/><path class="cls-6" d="M54.52,52.33c3.06,1.77,3.08,4.64,0,6.41a12.18,12.18,0,0,1-11.06,0c-3.07-1.77-3.09-4.64,0-6.41A12.2,12.2,0,0,1,54.52,52.33Z"/><path class="cls-3" d="M54.52,52.33a11.75,11.75,0,0,0-6.6-1.28v9a11.75,11.75,0,0,0,6.63-1.28C57.6,57,57.58,54.1,54.52,52.33Z"/><path class="cls-6" d="M34.13,64.17c3.06,1.77,3.08,4.64,0,6.41a12.23,12.23,0,0,1-11.07,0c-3.06-1.78-3.08-4.65,0-6.42A12.2,12.2,0,0,1,34.13,64.17Z"/><path class="cls-3" d="M34.13,64.17a11.83,11.83,0,0,0-6.6-1.28v9a11.75,11.75,0,0,0,6.63-1.28C37.21,68.81,37.19,65.94,34.13,64.17Z"/><polygon class="cls-1" points="32.63 56.86 32.63 83.99 0 65.15 0 38.02 32.63 56.86"/><polygon class="cls-4" points="98 18.84 32.63 56.86 0 38.02 65.37 0 98 18.84"/><polygon class="cls-3" points="32.63 83.99 32.63 56.86 98 18.84 98 45.97 32.63 83.99"/><path class="cls-3" d="M74.91,13.38C78,15.15,78,18,74.94,19.79a12.21,12.21,0,0,1-11.06,0c-3.07-1.78-3.09-4.64,0-6.42A12.2,12.2,0,0,1,74.91,13.38Z"/><path class="cls-1" d="M74.91,13.38a11.83,11.83,0,0,0-6.6-1.28v9a11.73,11.73,0,0,0,6.63-1.28C78,18,78,15.15,74.91,13.38Z"/><path class="cls-3" d="M54.52,25.23c3.06,1.77,3.08,4.64,0,6.41a12.18,12.18,0,0,1-11.06,0c-3.07-1.77-3.09-4.64,0-6.41A12.2,12.2,0,0,1,54.52,25.23Z"/><path class="cls-1" d="M54.52,25.23A11.67,11.67,0,0,0,47.92,24v9a11.66,11.66,0,0,0,6.63-1.27C57.6,29.86,57.58,27,54.52,25.23Z"/><path class="cls-3" d="M34.13,37.07c3.06,1.77,3.08,4.64,0,6.41a12.2,12.2,0,0,1-11.07,0c-3.06-1.77-3.08-4.64,0-6.41A12.2,12.2,0,0,1,34.13,37.07Z"/><path class="cls-1" d="M34.13,37.07a11.75,11.75,0,0,0-6.6-1.28v9a11.75,11.75,0,0,0,6.63-1.28C37.21,41.71,37.19,38.84,34.13,37.07Z"/></g></g></svg>