<svg xmlns="http://www.w3.org/2000/svg" viewBox="0 0 130 97.98"><defs><style>.cls-1{fill:#00b0bc;}.cls-2{fill:#4a6cb8;}.cls-3{fill:#26bcc6;}.cls-4{fill:#fff;}.cls-5{fill:none;stroke:#fff;stroke-miterlimit:10;stroke-width:0.28px;}</style></defs><title>04_shaping business</title><g id="Layer_2" data-name="Layer 2"><g id="NatWest-longform_3-digitisation-desktop"><path class="cls-1" d="M130,70.83h0V69.41l-6.16-1.2L48.63,24.85a4.34,4.34,0,0,0-3.94,0L3.15,49,0,48.37v1.55H0a1.41,1.41,0,0,0,.82,1.14L81.37,97.5a4.34,4.34,0,0,0,3.94,0L129.19,72A1.38,1.38,0,0,0,130,70.83Z"/><path class="cls-2" d="M85.31,97.5,129.19,72a1.38,1.38,0,0,0,.81-1.18h0V69.41l-6.16-1.2-9.56-5.51L83.39,80V98A3.87,3.87,0,0,0,85.31,97.5Z"/><path class="cls-3" d="M129.18,68.23a1.2,1.2,0,0,1,0,2.28L85.31,96a4.34,4.34,0,0,1-3.94,0L.82,49.56a1.21,1.21,0,0,1,0-2.28l43.88-25.5a4.34,4.34,0,0,1,3.94,0Z"/><polygon class="cls-4" points="122.91 66.41 78.18 92.4 5.39 50.42 50.12 24.43 122.91 66.41"/><ellipse class="cls-5" cx="104.81" cy="80.8" rx="1.59" ry="2.74" transform="translate(23.71 185.38) rotate(-89.84)"/><path d="M24.94,36.3a.43.43,0,0,1,0,.81,1.55,1.55,0,0,1-1.39,0c-.39-.23-.39-.59,0-.81A1.55,1.55,0,0,1,24.94,36.3Z"/><circle class="cls-2" cx="71.7" cy="34.58" r="34.58"/><path class="cls-1" d="M101.37,52.51l-2.91-2.9L89,58.13,92.84,62A34.77,34.77,0,0,0,101.37,52.51Z"/><path class="cls-1" d="M63.57,63.38l-2.49,2.49H57a34.88,34.88,0,0,0,23.4,2.21V66.75H66.94Z"/><path class="cls-1" d="M46.66,58.43l-1.84-8.35,1.57-6.33V35.23L38,26.83a34.66,34.66,0,0,0,8.67,31.6Z"/><path class="cls-1" d="M39.74,21.31,54,10.57v-4h4.2v2.1l10.07-5.2L63.59,1A34.65,34.65,0,0,0,39.74,21.31Z"/><path class="cls-1" d="M103.21,20.52,99,17.17v-1l1.93,0A34.65,34.65,0,0,0,90.31,5.37H75L67.94,9.79v2H62.56l-3,5.3H70.37l4,6.31H68l-2.48-3.87H58.43L51.79,29.8V33h9.66V54.48h2L75.9,35.53v-4l-1.55-3.9h2.21l4,9.4,5.86-5.75L88.51,33l-2.18,2.52,4.61,4.73V36.12l1.84-2.55h1.48v2.66l4.09,3.21V33.91h4.07V30.14l-2.69-6.4h3.48Z"/></g></g></svg>