<svg xmlns="http://www.w3.org/2000/svg" viewBox="0 0 81 57.31"><defs><style>.cls-1{fill:#4a6cb8;}.cls-2{fill:#26bcc6;}.cls-3{fill:#fff;}.cls-4{fill:#490b63;}</style></defs><title>12_handshake</title><g id="Layer_2" data-name="Layer 2"><g id="NatWest-longform_3-digitisation-desktop"><path class="cls-1" d="M64.2,24.63h0A2.4,2.4,0,0,1,66.37,28L58.48,45.15a5.16,5.16,0,0,1-4.84,3l-21.22-.58Z"/><path class="cls-2" d="M81,6.39,72.1.55,48.27,14.39l-10.6,3.14,5.34,4L32.16,45.7a2.93,2.93,0,0,1-2.9,1.73h0a3,3,0,0,0,2.73,3l16.6,1.3A4.72,4.72,0,0,0,53.22,49L65.76,22.77,81,14.34Z"/><path class="cls-1" d="M.49,41.93,23.08,29.14,35.71,17.53H58.46a4,4,0,0,1-4,4H43L31.93,46.21a2.15,2.15,0,0,1-2.11,1.26l-5.36-.37L8.78,56.23Z"/><polygon class="cls-1" points="8.81 46.7 8.78 57.31 0 52.3 0.03 41.69 8.81 46.7"/><polygon class="cls-2" points="20.19 40.26 8.81 46.7 0.03 41.68 11.44 35.22 20.19 40.26"/><polygon class="cls-1" points="81 5.04 69.61 11.49 60.83 6.46 72.24 0 81 5.04"/><polyline class="cls-3" points="20.19 40.26 8.81 46.7 8.78 57.31 20.16 50.86 20.19 40.26"/><polyline class="cls-4" points="20.19 40.26 8.81 46.7 8.78 57.31 20.16 50.86 20.19 40.26"/><polyline class="cls-4" points="81 5.04 69.61 11.49 69.59 22.09 80.97 15.64 81 5.04"/><path class="cls-1" d="M17.48,45.51c.58-.33,1-.06,1,.6a2.28,2.28,0,0,1-1,1.78c-.57.33-1,.07-1-.59A2.28,2.28,0,0,1,17.48,45.51Z"/><path class="cls-1" d="M71.92,14.06c.57-.33,1-.06,1,.6a2.28,2.28,0,0,1-1,1.78c-.58.34-1,.07-1-.59A2.3,2.3,0,0,1,71.92,14.06Z"/><polygon class="cls-1" points="60.83 6.46 60.83 7.08 61.37 6.77 60.83 6.46"/><polygon class="cls-3" points="69.59 22.09 68.38 21.36 69.59 20.69 69.59 22.09"/></g></g></svg>