<svg xmlns="http://www.w3.org/2000/svg" xmlns:xlink="http://www.w3.org/1999/xlink" viewBox="0 0 353.43 284.92"><defs><style>.cls-1{fill:#fff;}.cls-2{fill:url(#linear-gradient);}.cls-3{fill:#f5f3f7;}.cls-4{fill:#2bbec5;}.cls-5{fill:#516cb4;}.cls-6{fill:#42145f;}.cls-7{fill:#06b3bb;}.cls-8{fill:url(#linear-gradient-2);}.cls-9{fill:url(#linear-gradient-3);}.cls-10{fill:url(#linear-gradient-4);}.cls-11{fill:url(#linear-gradient-5);}</style><linearGradient id="linear-gradient" x1="319.47" y1="48.34" x2="352.66" y2="79.2" gradientUnits="userSpaceOnUse"><stop offset="0" stop-color="#f5f3f7"/><stop offset="1" stop-color="#714f87"/></linearGradient><linearGradient id="linear-gradient-2" x1="250.16" y1="108.75" x2="282.92" y2="129.4" xlink:href="#linear-gradient"/><linearGradient id="linear-gradient-3" x1="169.42" y1="119.77" x2="237.92" y2="183.44" xlink:href="#linear-gradient"/><linearGradient id="linear-gradient-4" x1="58.49" y1="215.41" x2="91.24" y2="236.06" xlink:href="#linear-gradient"/><linearGradient id="linear-gradient-5" x1="26.86" y1="218.02" x2="60.05" y2="248.87" xlink:href="#linear-gradient"/></defs><title>dumbbell</title><g id="Layer_2" data-name="Layer 2"><g id="Layer_4" data-name="Layer 4"><path class="cls-1" d="M353.43,50.39c0-5.59-3.92-12.39-8.78-15.2-2.51-1.45-4.77-1.54-6.38-.53h0L298.67,57.37l12.76,21.29L350.8,56.07l.05,0h0C352.44,55.1,353.42,53.16,353.43,50.39Z"/><path class="cls-2" d="M313.41,77.53,350.8,56.07l.05,0h0c1.56-.93,2.54-2.87,2.55-5.64a16.77,16.77,0,0,0-1.62-6.79l-43.7,25.08Z"/><path class="cls-3" d="M305.16,57.84c4.87,2.81,8.8,9.62,8.78,15.21s-4,7.85-8.84,5-8.79-9.62-8.78-15.21S300.3,55,305.16,57.84Z"/><path class="cls-4" d="M257.9,4C268-2.12,282-1.4,297.48,7.56c30.43,17.56,55,60.15,54.92,95.1,0,16.92-5.87,29-15.31,34.88l-55,31.8L203.33,35.51Z"/><path class="cls-5" d="M337.09,137.54c9.44-5.92,15.26-18,15.31-34.88,0-15.72-4.92-33-13.14-48.81L271.08,92.91l3.44,63.55,7.58,12.88Z"/><path class="cls-6" d="M273.44,21.48c-15.51-9-29.54-9.68-39.58-3.61l-5.63,3.28c10-6.07,24.07-5.34,39.58,3.61,30.43,17.57,55,60.15,54.91,95.11-.05,16.76-5.76,28.71-15,34.7l5.36-3.11c9.44-5.92,15.26-18,15.31-34.88C328.45,81.63,303.87,39,273.44,21.48Z"/><path class="cls-7" d="M243.37,38.84c30.43,17.56,55,60.14,54.91,95.1S273.44,183,243,165.44s-55-60.15-54.9-95.11S213,21.27,243.37,38.84Z"/><path class="cls-8" d="M244.94,119.83l-9.2-25.39,3.47-1.92a8,8,0,0,1,3.63-.83,11.49,11.49,0,0,1,5.74,1.69c5.95,3.44,10.59,11.48,10.57,18.32,0,3.81-1.52,6.86-4,8.5l-3.86,2.17Z"/><path class="cls-1" d="M253,106.11l4.29-2.53a22.51,22.51,0,0,0-8.7-10.2,11.49,11.49,0,0,0-5.74-1.69,8,8,0,0,0-3.63.83l-3.47,1.92,4,11Z"/><path class="cls-3" d="M247.61,123.23a11.49,11.49,0,0,1-5.75-1.69c-6-3.43-10.59-11.48-10.57-18.32,0-5.78,3.5-9.82,8.47-9.82a11.49,11.49,0,0,1,5.74,1.69c5.95,3.44,10.59,11.48,10.57,18.32C256.06,119.19,252.58,123.23,247.61,123.23Z"/><path class="cls-1" d="M252.47,113.4c0-5.59-3.92-12.39-8.78-15.2-2.51-1.45-4.77-1.54-6.38-.53h0L126,161.79l12.76,21.29,111.1-64,0,0h0C251.49,118.11,252.46,116.17,252.47,113.4Z"/><path class="cls-9" d="M140.72,182l109.12-62.87,0,0h0c1.57-.93,2.54-2.87,2.55-5.64a16.77,16.77,0,0,0-1.62-6.79L135.42,173.1Z"/><path class="cls-3" d="M132.47,162.27c4.86,2.8,8.8,9.61,8.78,15.2s-4,7.85-8.84,5-8.79-9.62-8.78-15.21S127.61,159.46,132.47,162.27Z"/><path class="cls-4" d="M69.8,115.87c10-6.07,24.07-5.34,39.58,3.61,30.43,17.57,55,60.15,54.91,95.11,0,16.92-5.87,28.95-15.31,34.88l-55,31.8L15.23,147.44Z"/><path class="cls-5" d="M149,249.47c9.44-5.93,15.26-18,15.31-34.88.05-15.72-4.91-33-13.14-48.82L83,204.84l3.44,63.55L94,281.27Z"/><path class="cls-6" d="M85.34,133.4c-15.51-9-29.54-9.68-39.59-3.61l-5.63,3.29c10.05-6.07,24.08-5.35,39.59,3.61,30.42,17.56,55,60.15,54.91,95.1-.05,16.76-5.77,28.72-15.05,34.7l5.37-3.1c9.44-5.93,15.26-18,15.31-34.88C140.35,193.55,115.76,151,85.34,133.4Z"/><path class="cls-7" d="M55.27,150.76c30.42,17.57,55,60.15,54.91,95.11s-24.85,49.06-55.27,31.49S-.1,217.22,0,182.26,24.84,133.19,55.27,150.76Z"/><path class="cls-10" d="M53.27,226.5l-9.2-25.4,3.47-1.92a8,8,0,0,1,3.63-.82,11.49,11.49,0,0,1,5.74,1.69c6,3.43,10.59,11.48,10.57,18.32,0,3.8-1.52,6.85-4,8.49L59.64,229Z"/><path class="cls-1" d="M61.32,212.78l4.29-2.54a22.43,22.43,0,0,0-8.7-10.19,11.49,11.49,0,0,0-5.74-1.69,8,8,0,0,0-3.63.82l-3.47,1.92,4,11Z"/><path class="cls-3" d="M55.93,229.89a11.47,11.47,0,0,1-5.74-1.68c-5.95-3.44-10.59-11.49-10.57-18.32,0-5.79,3.5-9.82,8.47-9.82a11.49,11.49,0,0,1,5.74,1.69c6,3.43,10.59,11.48,10.57,18.32C64.39,225.86,60.9,229.89,55.93,229.89Z"/><path class="cls-1" d="M60.82,220.07c0-5.59-3.92-12.4-8.78-15.21-2.51-1.45-4.77-1.54-6.38-.53h0L6.06,227l12.76,21.3,39.37-22.6.05,0,0,0h0C59.84,224.78,60.81,222.83,60.82,220.07Z"/><path class="cls-11" d="M20.8,247.2l37.39-21.46.05,0,0,0h0c1.57-.92,2.54-2.87,2.55-5.63a16.78,16.78,0,0,0-1.62-6.8L15.5,238.35Z"/><path class="cls-3" d="M12.55,227.52c4.87,2.81,8.8,9.61,8.78,15.2s-4,7.85-8.84,5-8.79-9.62-8.77-15.21S7.69,224.71,12.55,227.52Z"/></g></g></svg>