<svg xmlns="http://www.w3.org/2000/svg" xmlns:xlink="http://www.w3.org/1999/xlink" viewBox="0 0 98 98"><defs><style>.cls-1,.cls-5,.cls-9{fill:none;}.cls-2{fill:#00b0bc;}.cls-3{fill:#4a6cb8;}.cls-4{clip-path:url(#clip-path);}.cls-5{stroke:#33c0c9;}.cls-5,.cls-9{stroke-miterlimit:10;stroke-width:0.54px;}.cls-6{fill:#33c0c9;}.cls-7{fill:#6e89c7;}.cls-8{clip-path:url(#clip-path-2);}.cls-9{stroke:#6e89c7;}</style><clipPath id="clip-path"><circle class="cls-1" cx="49" cy="49" r="49"/></clipPath><clipPath id="clip-path-2"><path class="cls-1" d="M75.67,7.89A49,49,0,0,1,7.89,75.67,49,49,0,1,0,75.67,7.89Z"/></clipPath></defs><title>16_ball</title><g id="Layer_2" data-name="Layer 2"><g id="NatWest-longform_3-digitisation-desktop"><circle class="cls-2" cx="49" cy="49" r="49"/><path class="cls-3" d="M75.67,7.89A49,49,0,0,1,7.89,75.67,49,49,0,1,0,75.67,7.89Z"/><g class="cls-4"><line class="cls-5" x1="54.25" y1="53.69" x2="60.79" y2="83.11"/><line class="cls-5" x1="93.11" y1="43.24" x2="66.3" y2="36.04"/><line class="cls-5" x1="94.96" y1="58.82" x2="69.18" y2="92.43"/><line class="cls-5" x1="20.31" y1="81.05" x2="49" y2="92.25"/><line class="cls-5" x1="32.37" y1="45.81" x2="14.07" y2="61.7"/><line class="cls-5" x1="4.01" y1="29.57" x2="3.21" y2="57.21"/><line class="cls-5" x1="18.38" y1="15.32" x2="34.65" y2="23.74"/><line class="cls-5" x1="56.35" y1="18.11" x2="63.34" y2="5.71"/></g><polygon class="cls-6" points="54.86 56.13 70.27 37.11 56.91 17.12 32.71 22.54 31.02 46.86 54.86 56.13"/><path class="cls-7" d="M43.12,90l7.5,8A48.65,48.65,0,0,0,74.4,90.91l4.06-10.58L59.68,77.8Z"/><path class="cls-7" d="M93.12,27.67,88.21,41.92l3.73,20.83,4.62-1.91a49.17,49.17,0,0,0-3.44-33.17Z"/><path class="cls-6" d="M63.05,6.53l12.11,1A48.8,48.8,0,0,0,55.38.41Z"/><path class="cls-6" d="M25.62,5.93A49.19,49.19,0,0,0,4,29.57L20.55,16.28Z"/><path class="cls-6" d="M1.19,59.79a48.91,48.91,0,0,0,12,22.62l8.35-.63-6-21.31-12.16-9Z"/><path class="cls-7" d="M21.45,81.78A49,49,0,0,1,7.89,75.67l.24.36.09.14.38.56.06.08a46.47,46.47,0,0,0,2.9,3.8l0,0,.48.56,0,.06.48.53.06.07.47.52,0,0Z"/><g class="cls-8"><line class="cls-9" x1="54.25" y1="53.69" x2="60.79" y2="83.11"/><line class="cls-9" x1="93.11" y1="43.24" x2="66.3" y2="36.04"/><line class="cls-9" x1="94.96" y1="58.82" x2="69.18" y2="92.43"/><line class="cls-9" x1="20.31" y1="81.05" x2="49" y2="92.25"/><line class="cls-9" x1="32.37" y1="45.81" x2="14.07" y2="61.7"/><line class="cls-9" x1="4.01" y1="29.57" x2="3.21" y2="57.21"/><line class="cls-9" x1="18.38" y1="15.32" x2="34.65" y2="23.74"/><line class="cls-9" x1="56.35" y1="18.11" x2="63.34" y2="5.71"/></g></g></g></svg>