<svg xmlns="http://www.w3.org/2000/svg" viewBox="0 0 343.28 548.47"><defs><style>.cls-1{fill:#516cb4;}.cls-2{fill:#06b3bb;}.cls-3{fill:#38c2c9;}</style></defs><title>ladder</title><g id="Layer_2" data-name="Layer 2"><g id="Layer_4" data-name="Layer 4"><path class="cls-1" d="M111.86,94.57s10.82.32,19.1,17.83,95.81,249.87,95.81,249.87l7.64-4.14s-88.17-230.45-93.9-245.73-16.59-25.88-27.06-28.33Z"/><path class="cls-2" d="M112,94.59c3.33,2.56,7.15,6.84,10.54,14,8.28,17.51,95.81,249.87,95.81,249.87l8.39,3.79S139.23,129.91,131,112.4C123.28,96.16,113.42,94.71,112,94.59Z"/><path class="cls-1" d="M148.07,12.57c-6.7-.08-10.51,5.62-12.9,15C131.88,40.38,7.78,489.86,7.78,489.86l8.45-4.45S140.34,35.93,143.63,23.07A30.66,30.66,0,0,1,148.07,12.57Z"/><path class="cls-2" d="M127.1,23.33C121.72,43.67,0,485.67,0,485.67l7.78,4.19S131.88,40.38,135.17,27.52Z"/><polygon class="cls-2" points="254.59 187.76 254.59 194.89 184.28 235.11 91.67 181.01 91.67 173.88 254.59 187.76"/><polygon class="cls-3" points="161.99 133.66 254.59 187.76 184.28 227.98 91.67 173.88 161.99 133.66"/><polygon class="cls-1" points="184.28 227.98 184.28 235.11 254.59 194.89 254.59 187.76 184.28 227.98"/><polygon class="cls-2" points="171.66 295.22 171.66 302.35 145.4 317.65 52.79 263.55 52.79 256.42 171.66 295.22"/><polygon class="cls-3" points="79.05 241.12 171.66 295.22 145.4 310.52 52.79 256.42 79.05 241.12"/><polygon class="cls-1" points="145.4 310.52 145.4 317.65 171.66 302.35 171.66 295.22 145.4 310.52"/><polygon class="cls-2" points="157.3 358.02 157.3 365.15 131.04 380.45 38.44 326.35 38.44 319.22 157.3 358.02"/><polygon class="cls-3" points="64.7 303.92 157.3 358.02 131.04 373.32 38.44 319.22 64.7 303.92"/><polygon class="cls-1" points="131.04 373.32 131.04 380.45 157.3 365.15 157.3 358.02 131.04 373.32"/><polygon class="cls-2" points="140.85 418.83 140.85 425.96 114.59 441.26 21.99 387.16 21.99 380.03 140.85 418.83"/><polygon class="cls-3" points="48.25 364.73 140.85 418.83 114.59 434.13 21.99 380.03 48.25 364.73"/><polygon class="cls-1" points="114.59 434.13 114.59 441.26 140.85 425.96 140.85 418.83 114.59 434.13"/><polygon class="cls-2" points="123.81 480.06 123.81 487.19 97.55 502.49 4.94 448.38 4.94 441.26 123.81 480.06"/><polygon class="cls-3" points="31.2 425.96 123.81 480.06 97.55 495.36 4.94 441.26 31.2 425.96"/><polygon class="cls-1" points="97.55 495.36 97.55 502.49 123.81 487.19 123.81 480.06 97.55 495.36"/><path class="cls-2" d="M221,40.68c-16.75-9-51.14-28.11-62.2-33.5S132.48,3,127.1,23.33l8.07,4.19c3.29-12.86,9.27-18.84,21.83-12.26s50.54,26.91,60.11,32.3,16.75,12.86,11.07,33.49-128,462.64-128,462.64l7.18,4.78S230,105.27,236,84,237.75,49.65,221,40.68Z"/><path class="cls-1" d="M220.73,153.07s10.82.32,19.1,17.82,95.81,249.87,95.81,249.87l7.64-4.14s-88.17-230.45-93.9-245.73S232.8,145,222.32,142.56Z"/><path class="cls-2" d="M220.9,153.08c3.33,2.56,7.15,6.85,10.55,14,8.27,17.5,95.8,249.87,95.8,249.87l8.39,3.78S248.11,188.4,239.83,170.89C232.15,154.65,222.29,153.21,220.9,153.08Z"/><path class="cls-1" d="M229.46,36.23c-16.75-9-51.14-28.11-62.2-33.49-5.79-2.82-12.71-3.83-18.78-1.26L139,6.4c6.29-3.14,13.67-2.19,19.78.78,6.59,3.21,21.46,11.3,35.95,19.21,12.91,6.93,20.16,13.21,25.19,16,7.84,4.41,18.63,14.13,17.5,27.43.16,5.11.35,7.66-1.49,14.18-6,21.23-128.59,464.43-128.59,464.43l8.46-4.45S238.43,100.83,244.41,79.59,246.21,45.2,229.46,36.23Z"/><path class="cls-3" d="M229.46,36.23c-16.75-9-51.14-28.11-62.2-33.49-5.79-2.82-12.71-3.83-18.78-1.26L139,6.4c6.29-3.14,13.67-2.19,19.78.78,6.59,3.21,21.46,11.3,35.95,19.21,12.91,6.93,20.16,13.21,25.19,16s11.28,7.85,14.81,14.6l9.75-6.13C241.79,45,236.85,40.19,229.46,36.23Z"/></g></g></svg>