<svg xmlns="http://www.w3.org/2000/svg" viewBox="0 0 449.45 327.25"><defs><style>.cls-1{fill:#38c2c9;}.cls-2{fill:none;stroke:#ffde9c;stroke-miterlimit:10;}.cls-3{fill:#06b3bb;}.cls-4{fill:#516cb4;}.cls-5{fill:#fff;}</style></defs><title>plane</title><g id="Layer_2" data-name="Layer 2"><g id="Layer_4" data-name="Layer 4"><polygon class="cls-1" points="320.86 105.81 305.29 40.11 312.88 34.4 360.55 90.48 320.86 105.81"/><path class="cls-2" d="M123.9,194.41c5.65,3.26,10.22,11.17,10.2,17.68s-4.62,9.11-10.27,5.85-10.23-11.18-10.21-17.68S118.24,191.14,123.9,194.41Z"/><polygon class="cls-3" points="88.5 211.19 116.38 193.86 131.43 218.43 103.78 235.62 88.5 211.19"/><path class="cls-4" d="M96.22,211.62c5.65,3.27,10.21,11.18,10.2,17.68s-4.62,9.12-10.27,5.85S85.92,224,85.94,217.48,90.56,208.36,96.22,211.62Z"/><path class="cls-3" d="M216.12,254.67c5.65,3.26,10.22,11.18,10.2,17.68s-4.62,9.11-10.27,5.85S205.82,267,205.84,260.53,210.46,251.4,216.12,254.67Z"/><polygon class="cls-3" points="182.07 270.48 208.6 254.12 223.65 278.69 196 295.89 182.07 270.48"/><path class="cls-1" d="M.08,318.08a6.15,6.15,0,0,0,2.67,6.08c5.71,3.82,22.83,8.44,68.51-15.5,61-32,185-106.78,212.71-123.17s46.66-40.36,60.95-56.34,25.23-29.84,25.23-29.84V87.12s-50.87,17.23-77.35,31.95S121.28,217.86,69.15,247.7C22.75,274.27,2,305.84.08,318.08Z"/><path class="cls-3" d="M77.4,266.43C72,263.38,60,257.65,56,255.78,18.81,280.38,1.81,307.06.08,318.08a6.15,6.15,0,0,0,2.67,6.08c5.71,3.82,22.83,8.44,68.51-15.5,4.55-2.39,9.47-5,14.67-7.85C85.81,273.7,83.72,270,77.4,266.43Z"/><path class="cls-4" d="M284,164.6c-27.55,16.72-151.76,91.22-212.71,123.17-39.61,20.76-51.41,31.42-65.57,17C2.42,310.25.58,314.85.08,318.08a6.15,6.15,0,0,0,2.67,6.08c5.71,3.82,22.83,8.44,68.51-15.5,61-32,185-106.78,212.71-123.17s46.66-40.36,60.95-56.34,25.23-29.84,25.23-29.84V95.54S347.88,125.83,284,164.6Z"/><path class="cls-5" d="M73.67,288.5c.19-.1.33,0,.33.19L74,293a.73.73,0,0,1-.33.57l-1.88,1.09c-.19.1-.34,0-.34-.19v-4.32a.73.73,0,0,1,.33-.57Z"/><path class="cls-5" d="M81.41,284c.18-.11.33,0,.33.19v4.32a.7.7,0,0,1-.33.57l-1.88,1.09c-.18.1-.33,0-.33-.19v-4.32a.73.73,0,0,1,.33-.57Z"/><path class="cls-5" d="M89.15,279.4c.18-.11.33,0,.33.19v4.32a.7.7,0,0,1-.33.57l-1.88,1.09c-.18.1-.33,0-.33-.19v-4.32a.7.7,0,0,1,.33-.57Z"/><path class="cls-5" d="M96.89,274.85c.18-.11.33,0,.33.19v4.32a.73.73,0,0,1-.33.57L95,281c-.18.1-.33,0-.33-.19v-4.32a.71.71,0,0,1,.33-.58Z"/><path class="cls-5" d="M104.62,270.3c.19-.11.33,0,.34.19v4.32a.74.74,0,0,1-.33.57l-1.88,1.09c-.19.1-.33,0-.33-.19l0-4.32a.76.76,0,0,1,.33-.58Z"/><path class="cls-5" d="M112.36,265.75c.18-.11.33,0,.33.19l0,4.32a.74.74,0,0,1-.33.57l-1.88,1.09c-.19.1-.34,0-.34-.19V267.4a.74.74,0,0,1,.33-.57Z"/><path class="cls-5" d="M120.1,261.2c.18-.11.33,0,.33.19v4.32a.71.71,0,0,1-.33.57l-1.88,1.08c-.18.11-.33,0-.33-.18v-4.33a.74.74,0,0,1,.33-.57Z"/><path class="cls-5" d="M127.84,256.65c.18-.11.33,0,.33.19v4.32a.74.74,0,0,1-.33.57L126,262.81c-.18.11-.33,0-.33-.19V258.3a.71.71,0,0,1,.33-.57Z"/><path class="cls-5" d="M135.57,252.1c.19-.11.34,0,.34.18v4.33a.74.74,0,0,1-.33.57l-1.88,1.08c-.18.11-.33,0-.33-.19l0-4.32a.74.74,0,0,1,.33-.57Z"/><path class="cls-5" d="M143.31,247.54c.19-.1.33,0,.33.19l0,4.33a.74.74,0,0,1-.33.57l-1.88,1.08c-.19.11-.34,0-.34-.19V249.2a.74.74,0,0,1,.33-.57Z"/><path class="cls-5" d="M151.05,243c.18-.1.33,0,.33.19v4.32a.73.73,0,0,1-.33.58l-1.88,1.08c-.18.11-.33,0-.33-.19v-4.32a.74.74,0,0,1,.33-.57Z"/><path class="cls-5" d="M158.79,238.44c.18-.1.33,0,.33.19V243a.73.73,0,0,1-.33.58l-1.88,1.08c-.18.11-.33,0-.33-.19V240.1a.7.7,0,0,1,.33-.57Z"/><path class="cls-5" d="M166.53,233.89c.18-.1.33,0,.33.19v4.32a.73.73,0,0,1-.33.57l-1.88,1.09c-.18.11-.33,0-.33-.19v-4.32a.68.68,0,0,1,.33-.57Z"/><path class="cls-5" d="M174.26,229.34c.19-.1.33,0,.34.19v4.32a.73.73,0,0,1-.33.57l-1.88,1.09c-.19.11-.33,0-.33-.19l0-4.32a.73.73,0,0,1,.33-.57Z"/><path class="cls-5" d="M182,224.79c.18-.1.33,0,.33.19l0,4.32a.73.73,0,0,1-.33.57L180.14,231c-.19.1-.34,0-.34-.19v-4.32a.73.73,0,0,1,.33-.57Z"/><path class="cls-5" d="M189.74,220.24c.18-.11.33,0,.33.19v4.32a.7.7,0,0,1-.33.57l-1.88,1.09c-.18.1-.33,0-.33-.19V221.9a.73.73,0,0,1,.33-.57Z"/><path class="cls-5" d="M197.48,215.69c.18-.11.33,0,.33.19v4.32a.73.73,0,0,1-.33.57l-1.88,1.09c-.18.1-.33,0-.33-.19v-4.32a.7.7,0,0,1,.33-.57Z"/><path class="cls-5" d="M205.21,211.14c.19-.11.34,0,.34.19v4.32a.73.73,0,0,1-.33.57l-1.88,1.09c-.18.1-.33,0-.33-.19l0-4.32a.76.76,0,0,1,.33-.58Z"/><path class="cls-5" d="M213,206.59c.19-.11.33,0,.33.19l0,4.32a.74.74,0,0,1-.33.57l-1.88,1.09c-.19.1-.34,0-.34-.19v-4.32a.76.76,0,0,1,.33-.58Z"/><path class="cls-5" d="M220.69,202c.18-.11.33,0,.33.19v4.32a.71.71,0,0,1-.33.57l-1.88,1.09c-.18.1-.33,0-.33-.19v-4.33a.74.74,0,0,1,.33-.57Z"/><path class="cls-5" d="M228.43,197.49c.18-.11.33,0,.33.19V202a.71.71,0,0,1-.33.57l-1.88,1.08c-.18.11-.33,0-.33-.18v-4.33a.71.71,0,0,1,.33-.57Z"/><path class="cls-5" d="M237.33,189.09c.41-.23.74,0,.74.43l0,10.56-5,2.87c-.41.23-.75,0-.75-.43l0-9.7a1.68,1.68,0,0,1,.74-1.29Z"/><path class="cls-5" d="M243.9,188.39c.19-.11.33,0,.34.18v4.33a.74.74,0,0,1-.33.57L242,194.55c-.19.11-.33,0-.33-.19l0-4.32a.74.74,0,0,1,.33-.57Z"/><path class="cls-5" d="M251.64,183.83c.18-.1.33,0,.33.19l0,4.33a.74.74,0,0,1-.33.57L249.78,190c-.19.11-.34,0-.34-.19v-4.32a.74.74,0,0,1,.33-.57Z"/><path class="cls-5" d="M259.38,179.28c.18-.1.33,0,.33.19v4.32a.72.72,0,0,1-.33.58l-1.88,1.08c-.18.11-.33,0-.33-.19v-4.32a.74.74,0,0,1,.33-.57Z"/><path class="cls-5" d="M267.12,174.73c.18-.1.33,0,.33.19v4.32a.76.76,0,0,1-.33.58l-1.88,1.08c-.18.11-.33,0-.33-.19v-4.32a.7.7,0,0,1,.33-.57Z"/><path class="cls-5" d="M274.85,170.18c.19-.1.34,0,.34.19v4.32a.73.73,0,0,1-.33.57L273,176.35c-.18.11-.33,0-.33-.19l0-4.32a.73.73,0,0,1,.33-.57Z"/><path class="cls-5" d="M282.59,165.63c.19-.1.33,0,.33.19l0,4.32a.73.73,0,0,1-.33.57l-1.88,1.09c-.19.11-.34,0-.34-.19v-4.32a.73.73,0,0,1,.33-.57Z"/><path class="cls-5" d="M282.94,135s27.08-23,42.45-52.7S363.45,7.69,363.45,7.69l15-7.69L360.13,92.62Z"/><path class="cls-4" d="M282.94,135s27.08-23,42.45-52.7S363.45,7.69,363.45,7.69l15-7.69L360.13,92.62Z"/><polygon class="cls-1" points="370.15 99.31 449.45 113.08 442.13 118.94 351.7 121.47 370.15 99.31"/><polygon class="cls-1" points="148.39 265.55 390.53 277.04 404.8 265.55 219.86 223.64 148.39 265.55"/><polygon class="cls-1" points="115.92 220.8 61.16 87.12 78.36 79.41 171.51 188.72 115.92 220.8"/><polygon class="cls-4" points="76.9 39.52 83.85 36.23 78.36 79.41 61.16 87.12 76.9 39.52"/><polygon class="cls-4" points="390.53 277.04 415.05 243.37 422.74 238.61 404.8 265.55 390.53 277.04"/><path class="cls-4" d="M188.44,271.89c5.65,3.26,10.22,11.17,10.2,17.67s-4.62,9.12-10.27,5.86-10.23-11.19-10.21-17.68S182.78,268.62,188.44,271.89Z"/><path class="cls-5" d="M43.72,302.09s-6.1,3.47-16.59,3.47S13,296.45,13,294.24l4.81-5.78s.08,9.34,10.57,9.34,15.38-3.64,15.38-3.64Z"/></g></g></svg>