<svg xmlns="http://www.w3.org/2000/svg" xmlns:xlink="http://www.w3.org/1999/xlink" viewBox="0 0 81 87.89"><defs><style>.cls-1,.cls-8{fill:none;}.cls-2{fill:#00b0bc;}.cls-3{fill:#4a6cb8;}.cls-4{fill:#6e89c7;}.cls-5{fill:#33c0c9;}.cls-6{fill:#66d0d7;}.cls-7{clip-path:url(#clip-path);}.cls-8{stroke:#f6f3f7;stroke-miterlimit:10;stroke-width:1.37px;}.cls-9{clip-path:url(#clip-path-2);}.cls-10{clip-path:url(#clip-path-3);}</style><clipPath id="clip-path"><polygon class="cls-1" points="40.5 87.89 81 64.51 81 23.3 40.5 46.69 40.5 87.89"/></clipPath><clipPath id="clip-path-2"><polygon class="cls-1" points="40.5 87.89 0 64.51 0 23.3 40.5 46.69 40.5 87.89"/></clipPath><clipPath id="clip-path-3"><polygon class="cls-1" points="40.5 46.69 81 23.3 40.5 0 0 23.38 40.5 46.69"/></clipPath></defs><title>13_gift</title><g id="Layer_2" data-name="Layer 2"><g id="NatWest-longform_3-digitisation-desktop"><polygon class="cls-2" points="40.5 87.89 0 64.51 0 23.3 40.5 46.69 40.5 87.89"/><polygon class="cls-3" points="40.5 87.89 81 64.51 81 23.3 40.5 46.69 40.5 87.89"/><polygon class="cls-4" points="40.5 55.6 81 32.22 81 23.3 40.5 46.69 40.5 55.6"/><polygon class="cls-5" points="40.5 55.6 0 32.22 0 23.3 40.5 46.69 40.5 55.6"/><polygon class="cls-6" points="40.5 46.69 81 23.3 40.5 0 0 23.38 40.5 46.69"/><g class="cls-7"><line class="cls-8" x1="60.75" y1="78.61" x2="60.75" y2="24.65"/></g><g class="cls-9"><line class="cls-8" x1="20.25" y1="78.61" x2="20.25" y2="24.65"/></g><g class="cls-10"><line class="cls-8" x1="16.72" y1="9.62" x2="64.28" y2="36.99"/><line class="cls-8" x1="64.28" y1="9.62" x2="16.72" y2="36.99"/></g><path class="cls-8" d="M48.93,23.3a8.43,8.43,0,1,0-8.43-8.43V23.3Z"/><path class="cls-8" d="M32.07,23.3a8.43,8.43,0,1,1,8.43-8.43V23.3Z"/></g></g></svg>