<svg xmlns="http://www.w3.org/2000/svg" viewBox="0 0 443.24 84.06"><defs><style>.cls-1{fill:#acd9de;}.cls-2{fill:#26bcc6;}.cls-3{fill:#4a6cb8;}</style></defs><title>stars</title><g id="Layer_2" data-name="Layer 2"><g id="_MISC"><polygon class="cls-1" points="229.14 0 239.13 29.85 262.12 46.69 245.28 55.42 249.37 84.06 228.98 60.19 208.5 60.19 212.74 36.63 196 8.51 219.02 18.24 229.14 0"/><polygon class="cls-2" points="214.26 0 224.25 29.85 247.24 46.69 230.4 55.42 234.49 84.06 214.1 60.19 193.62 60.19 197.86 36.63 181.12 8.51 204.14 18.24 207.04 13 214.26 0"/><polygon class="cls-1" points="181.12 8.51 196 8.51 207.04 13 204.14 18.24 181.12 8.51"/><polygon class="cls-1" points="214.26 0 229.14 0 239.13 29.85 224.25 29.85 214.26 0"/><polygon class="cls-1" points="224.25 29.85 239.13 29.85 262.12 46.69 247.24 46.69 224.25 29.85"/><polygon class="cls-3" points="247.24 46.69 262.12 46.69 245.28 55.42 230.4 55.42 247.24 46.69"/><polygon class="cls-1" points="234.49 84.06 249.37 84.06 245.28 55.42 230.4 55.42 234.49 84.06"/><polygon class="cls-1" points="410.26 0 420.25 29.85 443.25 46.69 426.41 55.42 430.49 84.06 410.1 60.19 389.62 60.19 393.87 36.63 377.13 8.51 400.14 18.24 410.26 0"/><polygon class="cls-2" points="395.38 0 405.37 29.85 428.36 46.69 411.53 55.42 415.61 84.06 395.23 60.19 374.74 60.19 378.98 36.63 362.25 8.51 385.26 18.24 388.16 13 395.38 0"/><polygon class="cls-1" points="362.25 8.51 377.13 8.51 388.16 13 385.26 18.24 362.25 8.51"/><polygon class="cls-1" points="395.38 0 410.26 0 420.25 29.85 405.37 29.85 395.38 0"/><polygon class="cls-1" points="405.37 29.85 420.25 29.85 443.25 46.69 428.36 46.69 405.37 29.85"/><polygon class="cls-3" points="428.36 46.69 443.25 46.69 426.41 55.42 411.53 55.42 428.36 46.69"/><polygon class="cls-1" points="415.61 84.06 430.49 84.06 426.41 55.42 411.53 55.42 415.61 84.06"/><polygon class="cls-1" points="48.02 0 58.01 29.85 81 46.69 64.16 55.42 68.25 84.06 47.85 60.19 27.38 60.19 31.62 36.63 14.88 8.51 37.9 18.24 48.02 0"/><polygon class="cls-2" points="33.14 0 43.13 29.85 66.12 46.69 49.28 55.42 53.36 84.06 32.98 60.19 12.49 60.19 16.74 36.63 0 8.51 23.01 18.24 25.92 13 33.14 0"/><polygon class="cls-1" points="0 8.51 14.88 8.51 25.92 13 23.01 18.24 0 8.51"/><polygon class="cls-1" points="33.14 0 48.02 0 58.01 29.85 43.13 29.85 33.14 0"/><polygon class="cls-1" points="43.13 29.85 58.01 29.85 81 46.69 66.12 46.69 43.13 29.85"/><polygon class="cls-3" points="66.12 46.69 81 46.69 64.16 55.42 49.28 55.42 66.12 46.69"/><polygon class="cls-1" points="53.36 84.06 68.25 84.06 64.16 55.42 49.28 55.42 53.36 84.06"/></g></g></svg>